<svg width="58" height="58" viewBox="0 0 58 58" fill="none" xmlns="http://www.w3.org/2000/svg">
<g clip-path="url(#clip0)">
<path d="M19.7367 57.5875C13.3612 36.5795 26.8324 28.9089 26.8324 28.9089C25.8898 40.119 32.2603 48.8524 32.2603 48.8524C34.6032 48.1455 39.0752 44.8417 39.0752 44.8417C39.0752 48.8524 36.7155 57.5825 36.7155 57.5825C36.7155 57.5825 44.976 51.1954 47.5764 40.5869C50.1733 29.9785 42.6297 19.3282 42.6297 19.3282C43.0843 26.8367 40.5442 34.2215 35.5675 39.8633C35.8165 39.5759 36.0254 39.2567 36.1858 38.9108C37.0799 37.1226 38.5154 32.4752 37.6748 21.713C36.4916 6.60578 22.8032 0.235352 22.8032 0.235352C23.9831 9.44005 20.4452 11.5607 12.158 29.0326C3.87076 46.5011 19.7367 57.5875 19.7367 57.5875Z" fill="white"/>
</g>
<defs>
<clipPath id="clip0">
<rect width="57.3529" height="57.3529" fill="white" transform="translate(0.323486 0.235352)"/>
</clipPath>
</defs>
</svg>
