<svg width="73" height="52" viewBox="0 0 73 52" fill="none" xmlns="http://www.w3.org/2000/svg">
<path d="M71.0692 8.45708C70.2373 5.36453 67.7991 2.92671 64.7069 2.09398C59.058 0.548363 36.462 0.548363 36.462 0.548363C36.462 0.548363 13.8668 0.548363 8.21794 2.03538C5.18531 2.86723 2.68756 5.36497 1.85572 8.45708C0.369141 14.1055 0.369141 25.8197 0.369141 25.8197C0.369141 25.8197 0.369141 37.5929 1.85572 43.1823C2.68845 46.2744 5.12583 48.7123 8.21838 49.545C13.9263 51.091 36.4629 51.091 36.4629 51.091C36.4629 51.091 59.058 51.091 64.7069 49.604C67.7995 48.7717 70.2373 46.3339 71.0701 43.2418C72.5562 37.5929 72.5562 25.8792 72.5562 25.8792C72.5562 25.8792 72.6157 14.1055 71.0692 8.45708ZM29.2679 36.6417V14.9978L48.0576 25.8197L29.2679 36.6417Z" fill="#C20E1A"/>
</svg>
