<svg width="50" height="50" viewBox="0 0 50 50" fill="none" xmlns="http://www.w3.org/2000/svg">
<path d="M41.9023 8.97741L33.2109 0.286034C33.0277 0.102929 32.7794 0 32.5204 0H2.93065C1.31523 0 0.000976562 1.31425 0.000976562 2.92968V47.0703C0.000976562 48.6857 1.31523 50 2.93065 50H27.5399C28.0792 50 28.5165 49.5627 28.5165 49.0234C28.5165 48.4842 28.0793 48.0469 27.5399 48.0469H2.93065C2.39218 48.0469 1.95409 47.6088 1.95409 47.0703V2.92968C1.95409 2.3912 2.39218 1.95312 2.93065 1.95312H31.5438V7.71481C31.5438 9.33024 32.8581 10.6445 34.4735 10.6445H40.2352V20.8516C40.2352 21.3908 40.6725 21.8281 41.2118 21.8281C41.751 21.8281 42.1883 21.3908 42.1883 20.8516V9.66793C42.1883 9.40895 42.0854 9.16061 41.9023 8.97741ZM34.4735 8.69137C33.935 8.69137 33.4969 8.25329 33.4969 7.71481V3.33426L38.854 8.69137H34.4735Z" fill="#C20E1A"/>
<path d="M41.9013 24.2852C41.7197 24.1034 41.4678 23.999 41.2109 23.999C40.9541 23.999 40.7021 24.1034 40.5205 24.2852C40.3389 24.4669 40.2344 24.7187 40.2344 24.9756C40.2344 25.2324 40.3388 25.4844 40.5205 25.6659C40.7021 25.8475 40.9541 25.9521 41.2109 25.9521C41.4678 25.9521 41.7197 25.8476 41.9013 25.6659C42.0829 25.4844 42.1875 25.2324 42.1875 24.9756C42.1875 24.7187 42.083 24.4668 41.9013 24.2852Z" fill="#C20E1A"/>
<path d="M47.7562 40.0385L49.9803 29.1135C50.0388 28.8263 49.9651 28.5278 49.7796 28.3009C49.5941 28.0738 49.3165 27.9421 49.0233 27.9421H28.6956L27.9649 24.7801C27.8626 24.3372 27.468 24.0234 27.0135 24.0234H23.0601C22.5208 24.0234 22.0835 24.4607 22.0835 25C22.0835 25.5393 22.5208 25.9766 23.0601 25.9766H26.2368L30.3948 43.9698C30.4971 44.4127 30.8917 44.7265 31.3463 44.7265H32.4313C31.7223 45.2623 31.2631 46.112 31.2631 47.0672C31.2631 48.6844 32.5788 49.9999 34.1959 49.9999C35.8129 49.9999 37.1286 48.6843 37.1286 47.0672C37.1286 46.112 36.6694 45.2623 35.9604 44.7265H41.9853C41.2763 45.2623 40.8171 46.112 40.8171 47.0672C40.8171 48.6844 42.1327 49.9999 43.7498 49.9999C45.3669 49.9999 46.6825 48.6843 46.6825 47.0672C46.6825 46.112 46.2233 45.2623 45.5144 44.7265H46.8259C47.3651 44.7265 47.8024 44.2892 47.8024 43.7499C47.8024 43.2107 47.3651 42.7734 46.8259 42.7734H32.1229L31.6715 40.8202H46.7992C47.2635 40.8202 47.6635 40.4934 47.7562 40.0385ZM43.7499 46.0876C44.2901 46.0876 44.7295 46.5271 44.7295 47.0672C44.7295 47.6073 44.2901 48.0468 43.7499 48.0468C43.2098 48.0468 42.7703 47.6073 42.7703 47.0672C42.7703 46.5271 43.2098 46.0876 43.7499 46.0876ZM34.1959 46.0876C34.736 46.0876 35.1754 46.5271 35.1754 47.0672C35.1754 47.6073 34.736 48.0468 34.1959 48.0468C33.6557 48.0468 33.2163 47.6073 33.2163 47.0672C33.2163 46.5271 33.6557 46.0876 34.1959 46.0876ZM31.2202 38.8671L29.1468 29.8952H47.8279L46.0015 38.8671H31.2202Z" fill="#C20E1A"/>
<path d="M31.1596 12.8906H14.9414C14.4021 12.8906 13.9648 13.3279 13.9648 13.8672C13.9648 14.4064 14.4021 14.8437 14.9414 14.8437H31.1596C31.6989 14.8437 32.1362 14.4064 32.1362 13.8672C32.1362 13.3279 31.699 12.8906 31.1596 12.8906Z" fill="#C20E1A"/>
<path d="M31.1596 19.9219H14.9414C14.4021 19.9219 13.9648 20.3592 13.9648 20.8984C13.9648 21.4377 14.4021 21.875 14.9414 21.875H31.1596C31.699 21.875 32.1362 21.4377 32.1362 20.8984C32.1362 20.3592 31.6989 19.9219 31.1596 19.9219Z" fill="#C20E1A"/>
<path d="M19.4336 26.9531H14.9414C14.4021 26.9531 13.9648 27.3904 13.9648 27.9297C13.9648 28.4689 14.4021 28.9062 14.9414 28.9062H19.4336C19.9728 28.9062 20.4101 28.4689 20.4101 27.9297C20.4101 27.3904 19.9729 26.9531 19.4336 26.9531Z" fill="#C20E1A"/>
<path d="M25 33.9844H14.9414C14.4021 33.9844 13.9648 34.4217 13.9648 34.9609C13.9648 35.5002 14.4021 35.9375 14.9414 35.9375H25C25.5392 35.9375 25.9765 35.5002 25.9765 34.9609C25.9765 34.4217 25.5393 33.9844 25 33.9844Z" fill="#C20E1A"/>
<path d="M25 41.0156H14.9414C14.4021 41.0156 13.9648 41.4529 13.9648 41.9922C13.9648 42.5314 14.4021 42.9687 14.9414 42.9687H25C25.5392 42.9687 25.9765 42.5314 25.9765 41.9922C25.9765 41.4529 25.5393 41.0156 25 41.0156Z" fill="#C20E1A"/>
<path d="M11.3442 10.4607C10.9627 10.0795 10.3446 10.0795 9.96304 10.4607L7.93805 12.4858L6.94059 11.4884C6.55915 11.1071 5.94079 11.1071 5.55945 11.4884C5.1781 11.8698 5.1781 12.4881 5.55945 12.8695L7.24743 14.5574C7.43815 14.748 7.68805 14.8434 7.93795 14.8434C8.18786 14.8434 8.43776 14.748 8.62848 14.5574L11.3441 11.8418C11.7255 11.4604 11.7255 10.8421 11.3442 10.4607Z" fill="#C20E1A"/>
<path d="M11.3442 17.4925C10.9627 17.1112 10.3446 17.1112 9.96304 17.4925L7.93805 19.5176L6.94059 18.5201C6.55915 18.1389 5.94079 18.1389 5.55945 18.5201C5.1781 18.9016 5.1781 19.5198 5.55945 19.9013L7.24743 21.5891C7.43815 21.7798 7.68805 21.8752 7.93795 21.8752C8.18786 21.8752 8.43776 21.7798 8.62848 21.5891L11.3441 18.8735C11.7255 18.4922 11.7255 17.8738 11.3442 17.4925Z" fill="#C20E1A"/>
<path d="M11.3442 24.5237C10.9627 24.1425 10.3446 24.1425 9.96304 24.5237L7.93805 26.5488L6.94059 25.5514C6.55915 25.1701 5.94079 25.1701 5.55945 25.5514C5.1781 25.9328 5.1781 26.5511 5.55945 26.9325L7.24743 28.6204C7.43815 28.811 7.68805 28.9064 7.93795 28.9064C8.18786 28.9064 8.43776 28.811 8.62848 28.6204L11.3441 25.9048C11.7255 25.5234 11.7255 24.9051 11.3442 24.5237Z" fill="#C20E1A"/>
<path d="M11.3442 31.5545C10.9627 31.1732 10.3446 31.1732 9.96304 31.5545L7.93805 33.5796L6.94059 32.5821C6.55915 32.2009 5.94079 32.2009 5.55945 32.5821C5.1781 32.9636 5.1781 33.5818 5.55945 33.9633L7.24743 35.6512C7.43815 35.8418 7.68805 35.9372 7.93795 35.9372C8.18786 35.9372 8.43776 35.8418 8.62848 35.6512L11.3441 32.9355C11.7255 32.5542 11.7255 31.9358 11.3442 31.5545Z" fill="#C20E1A"/>
<path d="M11.3441 38.5857C10.9626 38.2045 10.3445 38.2045 9.96304 38.5858L7.93805 40.6108L6.94059 39.6134C6.55915 39.2321 5.94079 39.2321 5.55945 39.6134C5.1781 39.9948 5.1781 40.6131 5.55945 40.9945L7.24743 42.6824C7.43815 42.873 7.68805 42.9684 7.93795 42.9684C8.18786 42.9684 8.43776 42.873 8.62848 42.6824L11.3441 39.9668C11.7254 39.5855 11.7254 38.9671 11.3441 38.5857Z" fill="#C20E1A"/>
<path d="M7.13564 5.55957C6.9541 5.37793 6.70214 5.27344 6.44531 5.27344C6.18847 5.27344 5.93652 5.37783 5.75488 5.55957C5.57324 5.74131 5.46875 5.99218 5.46875 6.25C5.46875 6.50683 5.57314 6.75878 5.75488 6.94033C5.93652 7.12206 6.18847 7.22656 6.44531 7.22656C6.70214 7.22656 6.9541 7.12206 7.13564 6.94033C7.31728 6.75878 7.42187 6.50683 7.42187 6.25C7.42187 5.99316 7.31738 5.74121 7.13564 5.55957Z" fill="#C20E1A"/>
<path d="M19.1928 5.27344H11.0339C10.4947 5.27344 10.0574 5.71074 10.0574 6.25C10.0574 6.78925 10.4947 7.22655 11.0339 7.22655H19.1928C19.7321 7.22655 20.1693 6.78925 20.1693 6.25C20.1693 5.71074 19.732 5.27344 19.1928 5.27344Z" fill="#C20E1A"/>
</svg>
