<svg width="54" height="54" viewBox="0 0 54 54" fill="none" xmlns="http://www.w3.org/2000/svg">
<path d="M47.4609 12.4453H41.291C40.7085 12.4453 40.2363 12.9175 40.2363 13.5C40.2363 14.0825 40.7085 14.5547 41.291 14.5547H47.4609C48.7404 14.5547 49.7812 15.5956 49.7812 16.875V28.9112C49.7812 30.2896 48.6598 31.411 47.2814 31.411H46.1953V23.625C46.1953 21.1824 44.2082 19.1953 41.7656 19.1953H26.209V15.9785C26.209 15.396 25.7368 14.9238 25.1543 14.9238C24.5718 14.9238 24.0996 15.396 24.0996 15.9785V19.1953H6.53906C5.25962 19.1953 4.21875 18.1544 4.21875 16.875C4.21875 15.5956 5.25962 14.5547 6.53906 14.5547H13.5181C14.1006 14.5547 14.5728 14.0825 14.5728 13.5C14.5728 12.9175 14.1006 12.4453 13.5181 12.4453H6.53906C4.09651 12.4453 2.10938 14.4324 2.10938 16.875C2.10938 16.9335 2.11159 16.9916 2.1138 17.0497C2.11148 17.0788 2.10938 17.1079 2.10938 17.1375V49.5703C2.10938 52.0129 4.09651 54 6.53906 54L47.4609 53.9987C49.9035 53.9987 51.8906 52.0116 51.8906 49.569V16.875C51.8906 14.4326 49.9035 12.4453 47.4609 12.4453ZM44.0859 49.5703C44.0859 50.8334 43.0713 51.8633 41.8144 51.8894H41.7656C41.7574 51.8894 41.7494 51.8904 41.7412 51.8906H6.53906C5.25962 51.8906 4.21875 50.8498 4.21875 49.5703V20.6465C4.89407 21.0634 5.68877 21.3047 6.53906 21.3047H41.7656C43.0451 21.3047 44.0859 22.3456 44.0859 23.625V31.411H34.5938C30.9881 31.411 28.0547 34.3444 28.0547 37.9501C28.0547 41.5557 30.9881 44.4891 34.5938 44.4891H44.0859V49.5703ZM49.7812 49.5692C49.7812 50.8486 48.7404 51.8895 47.4609 51.8895H45.5378C45.9543 51.2145 46.1953 50.4202 46.1953 49.5704V44.4893H46.8281C47.9296 44.4893 48.9493 44.1346 49.7812 43.5349V49.5692ZM49.7812 39.4268C49.7812 41.0551 48.4565 42.3799 46.8281 42.3799H34.5938C32.1512 42.3799 30.1641 40.3927 30.1641 37.9502C30.1641 35.5076 32.1512 33.5205 34.5938 33.5205H47.2814C48.2025 33.5205 49.0606 33.2479 49.7812 32.7806V39.4268Z" fill="#C20E1A"/>
<path d="M32.5897 6.87305C29.8572 6.87305 27.6343 9.09601 27.6343 11.8285C27.6343 14.561 29.8573 16.7839 32.5897 16.7839C35.3222 16.7839 37.5452 14.561 37.5452 11.8285C37.5452 9.09601 35.3222 6.87305 32.5897 6.87305ZM32.5897 14.6746C31.0204 14.6746 29.7437 13.3979 29.7437 11.8285C29.7437 10.2591 31.0205 8.98242 32.5897 8.98242C34.159 8.98242 35.4358 10.2591 35.4358 11.8285C35.4358 13.3979 34.1591 14.6746 32.5897 14.6746Z" fill="#C20E1A"/>
<path d="M22.3593 0C19.6268 0 17.4038 2.22296 17.4038 4.95545C17.4038 7.68793 19.6269 9.9109 22.3593 9.9109C25.0917 9.9109 27.3147 7.68793 27.3147 4.95545C27.3147 2.22296 25.0917 0 22.3593 0ZM22.3593 7.80152C20.7899 7.80152 19.5132 6.52482 19.5132 4.95545C19.5132 3.38607 20.79 2.10937 22.3593 2.10937C23.9285 2.10937 25.2053 3.38607 25.2053 4.95545C25.2053 6.52482 23.9286 7.80152 22.3593 7.80152Z" fill="#C20E1A"/>
<path d="M40.3602 1.75712H39.7618V1.15869C39.7618 0.576187 39.2896 0.104004 38.7071 0.104004C38.1246 0.104004 37.6524 0.576187 37.6524 1.15869V1.75712H37.054C36.4715 1.75712 35.9993 2.2293 35.9993 2.81181C35.9993 3.39431 36.4715 3.8665 37.054 3.8665H37.6524V4.46503C37.6524 5.04753 38.1246 5.51972 38.7071 5.51972C39.2896 5.51972 39.7618 5.04753 39.7618 4.46503V3.8665H40.3602C40.9427 3.8665 41.4149 3.39431 41.4149 2.81181C41.4149 2.2293 40.9427 1.75712 40.3602 1.75712Z" fill="#C20E1A"/>
<path d="M18.9492 10.3096C18.3667 10.3096 17.8945 10.7819 17.8945 11.3643V15.6357C17.8945 16.2182 18.3667 16.6904 18.9492 16.6904C19.5317 16.6904 20.0039 16.2182 20.0039 15.6357V11.3643C20.0039 10.7818 19.5317 10.3096 18.9492 10.3096Z" fill="#C20E1A"/>
<path d="M35.9808 37.336C35.7835 37.1398 35.5125 37.0269 35.2341 37.0269C34.9567 37.0269 34.6856 37.1397 34.4884 37.336C34.2922 37.5321 34.1804 37.8042 34.1804 38.0815C34.1804 38.359 34.2922 38.6311 34.4884 38.8272C34.6856 39.0244 34.9567 39.1362 35.2341 39.1362C35.5125 39.1362 35.7835 39.0244 35.9808 38.8272C36.1769 38.6311 36.2898 38.359 36.2898 38.0815C36.2898 37.8042 36.1769 37.5321 35.9808 37.336Z" fill="#C20E1A"/>
<path d="M9.10547 27.4219C8.52296 27.4219 8.05078 27.8942 8.05078 28.4766V37.1601C8.05078 37.7425 8.52296 38.2148 9.10547 38.2148C9.68797 38.2148 10.1602 37.7425 10.1602 37.1601V28.4766C10.1602 27.8942 9.68797 27.4219 9.10547 27.4219Z" fill="#C20E1A"/>
<path d="M9.85089 40.0541C9.65472 39.8581 9.38366 39.7451 9.10522 39.7451C8.82784 39.7451 8.55573 39.858 8.35956 40.0541C8.16339 40.2503 8.05054 40.5224 8.05054 40.7998C8.05054 41.0772 8.16339 41.3493 8.35956 41.5455C8.55573 41.7415 8.82784 41.8545 9.10522 41.8545C9.38366 41.8545 9.65472 41.7416 9.85089 41.5455C10.0481 41.3493 10.1599 41.0772 10.1599 40.7998C10.1599 40.5224 10.0481 40.2503 9.85089 40.0541Z" fill="#C20E1A"/>
</svg>
