<svg width="54" height="54" viewBox="0 0 54 54" fill="none" xmlns="http://www.w3.org/2000/svg">
<path d="M53.691 30.1627L49.3881 25.8606C49.3881 25.8606 49.3881 25.8606 49.3881 25.8605L49.388 25.8603L44.3042 20.7775C44.1064 20.5797 43.8382 20.4687 43.5585 20.4687H37.9688V14.9985C37.9688 12.9152 36.2739 11.2202 34.1904 11.2202H31.8516V2.53467C31.8516 1.95216 31.3794 1.47998 30.7969 1.47998H7.17188C6.58937 1.47998 6.11719 1.95216 6.11719 2.53467V11.2203H3.77831C1.69488 11.2203 0 12.9152 0 14.9986V46.4031C0 46.9856 0.472184 47.4578 1.05469 47.4578H5.73001C5.72695 47.5279 5.72463 47.598 5.72463 47.6688C5.72463 48.6858 6.03977 49.6303 6.57682 50.4109H1.05469C0.472184 50.4109 0 50.8831 0 51.4656C0 52.0481 0.472184 52.5203 1.05469 52.5203H17.6119C18.1944 52.5203 18.6666 52.0481 18.6666 51.4656C18.6666 50.8831 18.1944 50.4109 17.6119 50.4109H14.5756C15.1125 49.6303 15.4278 48.6858 15.4278 47.6688C15.4278 44.9936 13.2513 42.8172 10.5762 42.8172C8.74104 42.8172 7.14076 43.8416 6.31663 45.3484H2.10938V41.7625H51.8906V45.3484H45.6033C44.7792 43.8416 43.1789 42.8172 41.3438 42.8172C39.5029 42.8172 37.8984 43.8478 37.0765 45.3623C37.0233 45.354 36.9693 45.3484 36.914 45.3484H19.5821C18.9996 45.3484 18.5274 45.8206 18.5274 46.4031C18.5274 46.9856 18.9996 47.4578 19.5821 47.4578H36.4976C36.4945 47.5279 36.4922 47.598 36.4922 47.6688C36.4922 48.6858 36.8073 49.6303 37.3443 50.4109H30.6062C30.0237 50.4109 29.5515 50.8831 29.5515 51.4656C29.5515 52.0481 30.0237 52.5203 30.6062 52.5203H41.3416C41.3424 52.5203 41.343 52.5203 41.3436 52.5203C41.3443 52.5203 41.345 52.5203 41.3456 52.5203H48.4102C48.9927 52.5203 49.4648 52.0481 49.4648 51.4656C49.4648 50.8831 48.9927 50.4109 48.4102 50.4109H45.3432C45.8802 49.6303 46.1953 48.6858 46.1953 47.6688C46.1953 47.598 46.193 47.5279 46.1899 47.4578H52.9453C53.5278 47.4578 54 46.9856 54 46.4031V30.9086C54 30.6289 53.8888 30.3606 53.691 30.1627ZM10.5762 44.9266C12.0882 44.9266 13.3184 46.1568 13.3184 47.6688C13.3184 49.1808 12.0882 50.4109 10.5762 50.4109C9.0642 50.4109 7.83401 49.1808 7.83401 47.6688C7.83401 46.1568 9.06409 44.9266 10.5762 44.9266ZM8.22656 3.58936H29.7422V25.105C29.7422 26.3844 28.7013 27.4253 27.4219 27.4253H10.5469C9.26743 27.4253 8.22656 26.3844 8.22656 25.105V3.58936ZM35.8594 39.5686H2.10938V14.9986C2.10938 14.0784 2.8581 13.3297 3.77831 13.3297H6.11719V25.105C6.11719 27.5475 8.10432 29.5347 10.5469 29.5347H27.4219C29.8644 29.5347 31.8516 27.5475 31.8516 25.105V13.3297H34.1904C35.1107 13.3297 35.8594 14.0784 35.8594 14.9986V39.5686ZM41.3458 50.4108H41.3417C39.8306 50.4098 38.6016 49.18 38.6016 47.6687C38.6016 46.1567 39.8317 44.9265 41.3438 44.9265C42.8558 44.9265 44.0859 46.1567 44.0859 47.6687C44.0859 49.18 42.8569 50.4097 41.3458 50.4108ZM43.0867 22.5781H43.1216L47.1505 26.6063L43.2123 30.5445C43.1325 30.3284 43.0867 30.096 43.0867 29.8524V22.5781ZM51.8906 39.5686H37.9688V22.5782H40.9774V29.8526C40.9774 32.1221 42.8237 33.9685 45.0933 33.9685H51.8906V39.5686ZM51.8906 31.8591H45.0933C45.0251 31.8591 44.9577 31.8555 44.8913 31.8489L48.6423 28.0979L51.8906 31.3456V31.8591Z" fill="#C20E1A"/>
<path d="M27.0259 50.4106H27.0122C26.4297 50.4106 25.9575 50.8828 25.9575 51.4653C25.9575 52.0478 26.4297 52.52 27.0122 52.52H27.0259C27.6084 52.52 28.0806 52.0478 28.0806 51.4653C28.0806 50.8828 27.6084 50.4106 27.0259 50.4106Z" fill="#C20E1A"/>
<path d="M24.0469 6.60498C23.4644 6.60498 22.9922 7.07716 22.9922 7.65967V11.1829C22.9922 13.3927 21.1943 15.1907 18.9844 15.1907C16.7745 15.1907 14.9766 13.3927 14.9766 11.1829V7.65967C14.9766 7.07716 14.5044 6.60498 13.9219 6.60498C13.3394 6.60498 12.8672 7.07716 12.8672 7.65967V11.1829C12.8672 14.556 15.6114 17.3 18.9844 17.3C22.3574 17.3 25.1016 14.5558 25.1016 11.1829V7.65967C25.1016 7.07716 24.6294 6.60498 24.0469 6.60498Z" fill="white"/>
<path d="M25.8099 32.4844H13.2891C12.7066 32.4844 12.2344 32.9566 12.2344 33.5391C12.2344 34.1216 12.7066 34.5938 13.2891 34.5938H25.8099C26.3924 34.5938 26.8646 34.1216 26.8646 33.5391C26.8646 32.9566 26.3924 32.4844 25.8099 32.4844Z" fill="white"/>
<path d="M10.0069 32.7934C9.81072 32.5972 9.53861 32.4844 9.26123 32.4844C8.98385 32.4844 8.71174 32.5972 8.51557 32.7934C8.31834 32.9896 8.20654 33.2617 8.20654 33.5391C8.20654 33.8164 8.31834 34.0886 8.51557 34.2847C8.71174 34.4809 8.98279 34.5938 9.26123 34.5938C9.53861 34.5938 9.81072 34.4809 10.0069 34.2847C10.2031 34.0886 10.3159 33.8164 10.3159 33.5391C10.3159 33.2617 10.2031 32.9896 10.0069 32.7934Z" fill="white"/>
</svg>
