<svg width="40" height="40" viewBox="0 0 40 40" fill="none" xmlns="http://www.w3.org/2000/svg">
<path d="M12.7165 40.0002C12.7082 40.0002 12.6982 40.0002 12.6882 40.0002C12.3799 39.9902 12.1032 39.8119 11.9682 39.5352L9.56487 34.6502L4.11987 34.9985C3.81487 35.0052 3.52153 34.8669 3.3582 34.6069C3.19653 34.3452 3.18987 34.0169 3.34487 33.7502L12.4049 18.0485C12.6349 17.6502 13.1449 17.5135 13.5432 17.7435C13.9415 17.9735 14.0782 18.4835 13.8482 18.8819L5.56653 33.2352L10.0149 32.9519C10.3649 32.9319 10.6682 33.1135 10.8149 33.4152L12.7765 37.4002L19.1465 26.3835C19.3765 25.9852 19.8832 25.8452 20.2849 26.0802C20.6832 26.3102 20.8199 26.8202 20.5882 27.2185L13.4382 39.5852C13.2882 39.8419 13.0132 40.0002 12.7165 40.0002Z" fill="#C20E1A"/>
<path d="M27.0168 39.9998C26.7201 39.9998 26.4451 39.8414 26.2951 39.5831L16.7701 23.0248C16.5434 22.6248 16.6834 22.1164 17.0834 21.8881C17.4851 21.6614 17.9918 21.8031 18.2201 22.2014L20.5918 26.3864L26.9601 37.4014L28.9368 33.4098C29.0851 33.1098 29.3868 32.9298 29.7368 32.9481L34.1851 33.2314L25.9901 19.0231C25.7601 18.6248 25.8968 18.1148 26.2951 17.8848C26.6951 17.6531 27.2018 17.7898 27.4334 18.1898L36.4051 33.7464C36.5584 34.0131 36.5534 34.3414 36.3918 34.6031C36.2284 34.8648 35.9284 35.0048 35.6301 34.9948L30.1834 34.6498L27.7634 39.5364C27.6268 39.8114 27.3501 39.9881 27.0434 39.9981C27.0351 39.9998 27.0251 39.9998 27.0168 39.9998Z" fill="#C20E1A"/>
<path d="M23.6217 23.3334C23.2084 23.3334 22.7951 23.2467 22.4134 23.0734L20.5167 22.2117C20.1901 22.0634 19.8117 22.0634 19.4784 22.2117L17.5834 23.0734C16.8501 23.4051 16.0001 23.4201 15.2567 23.1117C14.5117 22.8034 13.9234 22.1934 13.6384 21.4401L12.9084 19.4917C12.7817 19.1517 12.5134 18.8851 12.1751 18.7567L10.2267 18.0267C9.47175 17.7434 8.86175 17.1534 8.55341 16.4084C8.24841 15.6617 8.26341 14.8151 8.59675 14.0817L9.45841 12.1867C9.60841 11.8567 9.60841 11.4784 9.45841 11.1484L8.59675 9.25342C8.26341 8.52008 8.24841 7.67175 8.55675 6.92842C8.86341 6.18342 9.47341 5.59342 10.2284 5.31008L12.1767 4.58008C12.5167 4.45342 12.7834 4.18508 12.9101 3.84675L13.6401 1.89675C13.9234 1.14175 14.5134 0.533416 15.2567 0.225082C16.0034 -0.0832508 16.8501 -0.0682508 17.5834 0.265082L19.4801 1.12675C19.8084 1.27675 20.1867 1.27675 20.5184 1.12675L22.4134 0.265082C23.1467 -0.0699175 23.9934 -0.0832508 24.7401 0.225082C25.4834 0.533416 26.0734 1.14342 26.3567 1.89675L27.0867 3.84508C27.2134 4.18508 27.4817 4.45175 27.8201 4.57842L29.7701 5.30842C30.5251 5.59175 31.1351 6.18175 31.4434 6.92675C31.7517 7.67008 31.7367 8.51842 31.4034 9.25175L30.5417 11.1467C30.3917 11.4767 30.3917 11.8534 30.5417 12.1851L31.4034 14.0801C31.7367 14.8134 31.7517 15.6601 31.4434 16.4051C31.1351 17.1501 30.5251 17.7401 29.7701 18.0234L27.8217 18.7534C27.4817 18.8801 27.2151 19.1484 27.0884 19.4867L26.3584 21.4351C26.0751 22.1901 25.4851 22.8001 24.7401 23.1084C24.3834 23.2601 24.0017 23.3334 23.6217 23.3334ZM20.0001 20.4317C20.4117 20.4317 20.8251 20.5184 21.2084 20.6934L23.1051 21.5551C23.4234 21.6984 23.7784 21.7051 24.1034 21.5717C24.4284 21.4367 24.6751 21.1817 24.7984 20.8534L25.5284 18.9051C25.8251 18.1167 26.4467 17.4934 27.2367 17.1967L29.1851 16.4651C29.5134 16.3417 29.7701 16.0951 29.9034 15.7701C30.0384 15.4467 30.0317 15.0917 29.8867 14.7717L29.0251 12.8767C28.6767 12.1084 28.6767 11.2284 29.0251 10.4601L29.8867 8.56341C30.0317 8.24508 30.0384 7.89008 29.9034 7.56508C29.7684 7.24008 29.5134 6.99342 29.1851 6.87008L27.2367 6.14008C26.4467 5.84342 25.8234 5.22008 25.5284 4.43008L24.7984 2.48175C24.6751 2.15342 24.4284 1.89842 24.1034 1.76342C23.7767 1.62508 23.4217 1.63508 23.1034 1.78008L21.2084 2.64175C20.4417 2.99175 19.5601 2.99175 18.7934 2.64175L16.8967 1.78008C16.5801 1.63508 16.2217 1.62675 15.8984 1.76342C15.5734 1.89842 15.3267 2.15342 15.2034 2.48175L14.4734 4.43008C14.1767 5.22008 13.5534 5.84342 12.7634 6.14008L10.8151 6.87175C10.4867 6.99508 10.2301 7.24175 10.0967 7.56675C9.96175 7.89008 9.96841 8.24508 10.1134 8.56508L10.9751 10.4601C11.3234 11.2284 11.3234 12.1084 10.9751 12.8767L10.1134 14.7717C9.96841 15.0917 9.96175 15.4451 10.0967 15.7701C10.2317 16.0951 10.4851 16.3417 10.8151 16.4651L12.7634 17.1951C13.5534 17.4917 14.1767 18.1151 14.4717 18.9034L15.2017 20.8517C15.3251 21.1801 15.5717 21.4367 15.8967 21.5701C16.2201 21.7034 16.5734 21.6967 16.8951 21.5534L18.7901 20.6917C19.1751 20.5201 19.5884 20.4317 20.0001 20.4317ZM20.8634 1.88342H20.8801H20.8634Z" fill="#C20E1A"/>
<path d="M19.9999 18.3333C16.3233 18.3333 13.3333 15.3433 13.3333 11.6667C13.3333 7.99 16.3233 5 19.9999 5C23.6766 5 26.6666 7.99 26.6666 11.6667C26.6666 15.3433 23.6766 18.3333 19.9999 18.3333ZM19.9999 6.66667C17.2433 6.66667 14.9999 8.91 14.9999 11.6667C14.9999 14.4233 17.2433 16.6667 19.9999 16.6667C22.7566 16.6667 24.9999 14.4233 24.9999 11.6667C24.9999 8.91 22.7566 6.66667 19.9999 6.66667Z" fill="#C20E1A"/>
</svg>
