<svg width="38" height="38" viewBox="0 0 38 38" fill="none" xmlns="http://www.w3.org/2000/svg">
<path d="M35.0597 4.78323L19.2264 0.0332314C19.0776 -0.0110771 18.9209 -0.0110771 18.772 0.0332314L2.93869 4.78323C2.60456 4.88298 2.375 5.19173 2.375 5.54167V22.9584C2.375 29.9599 13.0498 36.1871 18.7657 37.9652C18.8417 37.9889 18.9209 38 19 38C19.0791 38 19.1583 37.9889 19.2343 37.9652C24.9502 36.1855 35.625 29.9598 35.625 22.9583V5.54167C35.625 5.19173 35.3954 4.88454 35.0597 4.78323ZM34.0417 22.9583C34.0417 28.5173 25.2336 34.363 19 36.3786C12.7664 34.363 3.95831 28.5173 3.95831 22.9583V6.13067L19 1.61817L34.0417 6.13067V22.9583Z" fill="#C20E1A"/>
<path d="M19.0001 9.5C14.1978 9.5 10.2917 13.4061 10.2917 18.2083C10.2917 23.0106 14.1978 26.9167 19.0001 26.9167C23.8023 26.9167 27.7084 23.0106 27.7084 18.2084C27.7084 13.4061 23.8023 9.5 19.0001 9.5ZM19.0001 25.3333C15.0718 25.3333 11.8751 22.1366 11.8751 18.2083C11.8751 14.2801 15.0718 11.0833 19.0001 11.0833C22.9283 11.0833 26.125 14.2801 26.125 18.2083C26.125 22.1366 22.9283 25.3333 19.0001 25.3333Z" fill="#C20E1A"/>
<path d="M24.309 14.4825C24.0003 14.1738 23.4983 14.1738 23.1896 14.4825L17.4168 20.2553L14.809 17.6492C14.5003 17.3404 13.9983 17.3404 13.6896 17.6492C13.3808 17.9579 13.3808 18.4598 13.6896 18.7686L16.8563 21.9353C17.0115 22.0888 17.2141 22.1665 17.4168 22.1665C17.6195 22.1665 17.8221 22.0889 17.9757 21.9353L24.309 15.602C24.6178 15.2932 24.6178 14.7913 24.309 14.4825Z" fill="#C20E1A"/>
</svg>
