<svg width="34" height="34" viewBox="0 0 34 34" fill="none" xmlns="http://www.w3.org/2000/svg">
<path d="M24.7916 8.5H16.2916C15.9006 8.5 15.5833 8.81736 15.5833 9.20836C15.5833 9.59936 15.9006 9.91671 16.2916 9.91671H24.7916C25.1826 9.91671 25.5 9.59936 25.5 9.20836C25.5 8.81736 25.1826 8.5 24.7916 8.5Z" fill="#C20E1A"/>
<path d="M21.9583 29.75H4.24996V9.91664H12.0416C12.4326 9.91664 12.75 9.59929 12.75 9.20829V1.41664H26.9166V17.7083C26.9166 18.0993 27.234 18.4166 27.625 18.4166C28.016 18.4166 28.3333 18.0993 28.3333 17.7083V0.708289C28.3333 0.317355 28.016 0 27.625 0H12.0416C11.9467 0 11.8546 0.0198555 11.7682 0.05525C11.7271 0.07225 11.696 0.103395 11.6591 0.1275C11.6195 0.153 11.5741 0.172855 11.5401 0.206855L3.04011 8.70686C3.0075 8.73946 2.98911 8.78336 2.96361 8.82161C2.93811 8.85986 2.9055 8.89246 2.8885 8.93496C2.85311 9.02136 2.83325 9.11346 2.83325 9.20836V30.4584C2.83325 30.8494 3.15061 31.1667 3.54161 31.1667H21.9583C22.3493 31.1667 22.6666 30.8494 22.6666 30.4584C22.6666 30.0674 22.3493 29.75 21.9583 29.75ZM11.3333 2.41825V8.5H5.25157L11.3333 2.41825Z" fill="#C20E1A"/>
<path d="M21.9582 19.8335H6.37486C5.98386 19.8335 5.6665 20.1509 5.6665 20.5419C5.6665 20.9329 5.98386 21.2501 6.37486 21.2501H21.9582C22.3492 21.2501 22.6666 20.9328 22.6666 20.5418C22.6666 20.1508 22.3492 19.8335 21.9582 19.8335Z" fill="#C20E1A"/>
<path d="M24.7915 14.1665H6.37486C5.98386 14.1665 5.6665 14.4839 5.6665 14.8749C5.6665 15.2659 5.98386 15.5832 6.37486 15.5832H24.7915C25.1825 15.5832 25.4999 15.2659 25.4999 14.8749C25.4999 14.4839 25.1825 14.1665 24.7915 14.1665Z" fill="#C20E1A"/>
<path d="M29.757 26.1844C30.6084 25.5355 31.1666 24.524 31.1666 23.3751C31.1666 21.423 29.5771 19.8335 27.625 19.8335C25.6728 19.8335 24.0833 21.423 24.0833 23.3751C24.0833 24.5226 24.6414 25.5355 25.4914 26.183L24.0974 33.1515C24.045 33.4179 24.1484 33.6899 24.3623 33.8542C24.5776 34.0199 24.868 34.0454 25.1089 33.925L27.6249 32.667L30.1409 33.925C30.2415 33.9746 30.3505 34.0001 30.4583 34.0001C30.6099 34.0001 30.7629 33.9505 30.8861 33.8542C31.1015 33.6885 31.2049 33.4179 31.151 33.1516L29.757 26.1844ZM27.9408 31.2405C27.7424 31.1414 27.5073 31.1414 27.3075 31.2405L25.7704 32.0097L26.8088 26.812C27.0723 26.8757 27.3429 26.9169 27.6248 26.9169C27.9067 26.9169 28.1759 26.8757 28.4394 26.8135L29.4778 32.0098L27.9408 31.2405ZM27.6249 25.5001C26.4533 25.5001 25.4999 24.5467 25.4999 23.3751C25.4999 22.2035 26.4533 21.2501 27.6249 21.2501C28.7965 21.2501 29.7499 22.2035 29.7499 23.3751C29.7499 24.5467 28.7965 25.5001 27.6249 25.5001Z" fill="#C20E1A"/>
<path d="M12.0415 26.9166C12.4325 26.9166 12.7499 26.5993 12.7499 26.2083C12.7499 25.8173 12.4325 25.5 12.0415 25.5H6.37486C5.98386 25.5 5.6665 25.8174 5.6665 26.2084C5.6665 26.5994 5.98386 26.9166 6.37486 26.9166H12.0415Z" fill="#C20E1A"/>
</svg>
