<svg width="44" height="44" viewBox="0 0 44 44" fill="none" xmlns="http://www.w3.org/2000/svg">
<g clip-path="url(#clip0)">
<path d="M11.9166 34.8333H8.24992C7.74392 34.8333 7.33325 34.4227 7.33325 33.9167C7.33325 33.4107 7.74392 33 8.24992 33H11.9166C12.4226 33 12.8333 33.4107 12.8333 33.9167C12.8333 34.4227 12.4226 34.8333 11.9166 34.8333Z" fill="#C20E1A"/>
<path d="M41.7084 34.8335H39.4167C38.9107 34.8335 38.5 34.4228 38.5 33.9168C38.5 33.4108 38.9107 33.0002 39.4167 33.0002H40.9475L42.1832 26.4148C42.1667 23.0452 39.2884 20.1668 35.75 20.1668H29.7312L26.8144 33.0002H32.0834C32.5894 33.0002 33 33.4108 33 33.9168C33 34.4228 32.5894 34.8335 32.0834 34.8335H25.6667C25.388 34.8335 25.124 34.707 24.9499 34.4888C24.7757 34.2725 24.7097 33.9865 24.772 33.7152L28.105 19.0485C28.2004 18.6287 28.5707 18.3335 28.9997 18.3335H35.75C40.2985 18.3335 44 22.035 44 26.5835L42.6085 34.0855C42.5279 34.52 42.1502 34.8335 41.7084 34.8335Z" fill="#C20E1A"/>
<path d="M35.7501 38.5002C33.2237 38.5002 31.1667 36.445 31.1667 33.9168C31.1667 31.3887 33.2237 29.3335 35.7501 29.3335C38.2764 29.3335 40.3334 31.3887 40.3334 33.9168C40.3334 36.445 38.2764 38.5002 35.7501 38.5002ZM35.7501 31.1668C34.2339 31.1668 33.0001 32.4007 33.0001 33.9168C33.0001 35.433 34.2339 36.6668 35.7501 36.6668C37.2662 36.6668 38.5001 35.433 38.5001 33.9168C38.5001 32.4007 37.2662 31.1668 35.7501 31.1668Z" fill="#C20E1A"/>
<path d="M15.5833 38.5002C13.057 38.5002 11 36.445 11 33.9168C11 31.3887 13.057 29.3335 15.5833 29.3335C18.1097 29.3335 20.1667 31.3887 20.1667 33.9168C20.1667 36.445 18.1097 38.5002 15.5833 38.5002ZM15.5833 31.1668C14.0672 31.1668 12.8333 32.4007 12.8333 33.9168C12.8333 35.433 14.0672 36.6668 15.5833 36.6668C17.0995 36.6668 18.3333 35.433 18.3333 33.9168C18.3333 32.4007 17.0995 31.1668 15.5833 31.1668Z" fill="#C20E1A"/>
<path d="M11.9167 18.3333H4.58341C4.07741 18.3333 3.66675 17.9227 3.66675 17.4167C3.66675 16.9107 4.07741 16.5 4.58341 16.5H11.9167C12.4227 16.5 12.8334 16.9107 12.8334 17.4167C12.8334 17.9227 12.4227 18.3333 11.9167 18.3333Z" fill="#C20E1A"/>
<path d="M11.9166 23.8333H2.74992C2.24392 23.8333 1.83325 23.4227 1.83325 22.9167C1.83325 22.4107 2.24392 22 2.74992 22H11.9166C12.4226 22 12.8333 22.4107 12.8333 22.9167C12.8333 23.4227 12.4226 23.8333 11.9166 23.8333Z" fill="#C20E1A"/>
<path d="M11.9167 29.3333H0.916667C0.410667 29.3333 0 28.9227 0 28.4167C0 27.9107 0.410667 27.5 0.916667 27.5H11.9167C12.4227 27.5 12.8333 27.9107 12.8333 28.4167C12.8333 28.9227 12.4227 29.3333 11.9167 29.3333Z" fill="#C20E1A"/>
<path d="M25.6666 34.8335H19.2499C18.7439 34.8335 18.3333 34.4228 18.3333 33.9168C18.3333 33.4108 18.7439 33.0002 19.2499 33.0002H24.9351L29.1004 14.6668H8.24992C7.74392 14.6668 7.33325 14.2562 7.33325 13.7502C7.33325 13.2442 7.74392 12.8335 8.24992 12.8335H30.2499C30.5286 12.8335 30.7926 12.96 30.9668 13.1782C31.1409 13.3945 31.2069 13.6805 31.1446 13.9518L26.5613 34.1185C26.4659 34.5383 26.0938 34.8335 25.6666 34.8335Z" fill="#C20E1A"/>
</g>
<defs>
<clipPath id="clip0">
<rect width="44" height="44" fill="white"/>
</clipPath>
</defs>
</svg>
