<svg width="20" height="20" viewBox="0 0 20 20" fill="none" xmlns="http://www.w3.org/2000/svg">
<path d="M14.264 11.8156C14.9527 10.6845 15.3169 9.38581 15.3168 8.06159C15.3168 4.04999 12.0708 0.801588 8.05845 0.799988C4.04965 0.801188 0.800049 4.04999 0.800049 8.06079C0.800049 12.068 4.05005 15.3164 8.06085 15.3164C9.43685 15.3164 10.7188 14.9276 11.8144 14.2632L16.7516 19.2L19.2 16.7504L14.264 11.8156ZM8.06005 12.552C5.57925 12.546 3.57365 10.5412 3.56925 8.06559C3.57094 6.875 4.0446 5.73365 4.88639 4.8917C5.72819 4.04975 6.86946 3.57589 8.06005 3.57399C10.5396 3.58039 12.546 5.58519 12.5512 8.06559C12.546 10.5384 10.5388 12.546 8.06005 12.552Z" fill="black"/>
</svg>
