<svg width="16" height="16" viewBox="0 0 16 16" fill="none" xmlns="http://www.w3.org/2000/svg">
<path d="M3.72877 14.6586C3.76619 15.4117 4.38329 16 5.13878 16H10.8626C11.6181 16 12.2352 15.4118 12.2726 14.6586L13.0971 5.17647H2.9043L3.72877 14.6586ZM9.41247 7.52941H10.3536V12.7059H9.41247V7.52941ZM7.53012 7.52941H8.47129V12.7059H7.53012V7.52941ZM5.64776 7.52941H6.58894V12.7059H5.64776V7.52941Z" fill="black"/>
<path d="M10.3534 2.35294V1.41177C10.3534 0.633349 9.72011 0 8.94164 0H7.05928C6.28087 0 5.64752 0.633349 5.64752 1.41177V2.35294H1.88281V4.2353H14.1181V2.35294H10.3534ZM6.5887 2.35294V1.41177C6.5887 1.15228 6.79983 0.941177 7.05928 0.941177H8.94164C9.20115 0.941177 9.41222 1.15228 9.41222 1.41177V2.35294H6.5887Z" fill="black"/>
</svg>
