<svg width="44" height="44" viewBox="0 0 44 44" fill="none" xmlns="http://www.w3.org/2000/svg">
<g clip-path="url(#clip0)">
<path d="M39.6375 29.2865H37.8839C37.9303 29.0376 38.0349 28.7376 38.2483 28.4068C38.9053 27.3886 39.0458 26.4894 39.1697 25.6959C39.2479 25.196 39.3217 24.7238 39.5225 24.1789C39.7003 23.6963 40.0424 23.3042 40.3927 23.0055L41.6049 25.9936L44 25.0219L39.666 14.3051L38.6131 14.5181C38.4929 14.5424 35.6489 15.1517 33.8705 18.4448C32.5726 20.8484 29.6502 22.7146 26.095 23.4624L25.3864 20.8627L24.1227 21.2325C22.0356 21.8434 20.8222 22.3937 18.9548 23.4972C18.9447 23.5103 18.9343 23.524 18.9242 23.5371L14.0151 30.1293H9.98577C9.98577 30.1293 7.72813 27.0518 6.4382 25.3348C5.71914 25.6089 5.0871 26.0074 4.53639 26.5332C3.14315 27.8634 2.57599 30.0644 3.024 32.078L0 34.089L3.57548 40.5553H5.3099L6.64997 39.0472C8.00245 37.5253 9.94579 36.6524 11.9818 36.6524C13.6992 36.6524 15.3622 37.275 16.6645 38.4055C18.1467 39.692 19.5879 40.3983 20.9433 40.5489C22.4995 40.7219 23.4379 40.3411 24.6943 39.9383C25.6464 39.6329 26.3738 39.3194 27.6218 39.4812C28.1491 39.5495 28.629 39.5822 29.0688 39.5822C31.5351 39.5821 32.7172 38.5536 33.6487 37.0252C33.9704 36.4974 34.4199 36.1937 34.8478 36.0589C35.9686 35.7057 36.9985 37.0201 36.9985 37.0201L39.4404 35.8198C39.8749 37.0156 40.0957 38.2662 40.0957 39.5429H42.6803C42.6803 37.818 42.3555 36.1314 41.7151 34.5298L39.6375 29.2865Z" fill="#C20E1A"/>
<path d="M11.295 27.5445H12.705L16.8696 21.9683C18.6275 19.6684 21.0352 16.5185 21.0352 12.4434C21.0352 7.4614 16.982 3.40826 12.0001 3.40826C7.01807 3.40826 2.96484 7.4614 2.96484 12.4434C2.96484 16.5185 5.37239 19.6684 7.13041 21.9683L11.295 27.5445ZM7.69784 12.4434C7.69784 10.0712 9.62782 8.14117 12.0001 8.14117C14.3723 8.14117 16.3023 10.0712 16.3023 12.4434C16.3023 14.8156 14.3723 16.7456 12.0001 16.7456C9.62782 16.7456 7.69784 14.8157 7.69784 12.4434Z" fill="#C20E1A"/>
<path d="M13.5935 13.1037C13.9568 12.2272 13.5408 11.2222 12.6643 10.8589C11.7879 10.4956 10.7828 10.9116 10.4195 11.7881C10.0562 12.6645 10.4722 13.6696 11.3487 14.0329C12.2252 14.3962 13.2302 13.9802 13.5935 13.1037Z" fill="#C20E1A"/>
</g>
<defs>
<clipPath id="clip0">
<rect width="44" height="44" fill="white"/>
</clipPath>
</defs>
</svg>
