<svg width="40" height="40" viewBox="0 0 40 40" fill="none" xmlns="http://www.w3.org/2000/svg">
<g clip-path="url(#clip0)">
<path d="M20.0001 7.89691C16.2309 7.89691 13.1641 10.9638 13.1641 14.7329C13.1641 18.5021 16.2309 21.5689 20.0001 21.5689C23.7692 21.5689 26.8361 18.5021 26.8361 14.7329C26.8361 10.9638 23.7692 7.89691 20.0001 7.89691Z" fill="#C20E1A"/>
<path d="M18.4637 31.2376L18.427 31.204L17.556 30.4158L15.5062 28.5613L13.2775 28.8011L11.9136 28.9472L11.5902 28.9824L10.5489 29.0941L7.26953 36.0629L12.348 36.1301L15.6351 40L19.3723 32.0594L18.4637 31.2376Z" fill="#C20E1A"/>
<path d="M29.4503 29.0941L28.409 28.9824L28.0856 28.948L26.7217 28.8011L24.493 28.5613L22.4432 30.4158L21.5722 31.204L21.5355 31.2376L20.627 32.0594L24.3641 40L27.6513 36.1301L32.7297 36.0629L29.4503 29.0941Z" fill="#C20E1A"/>
<path d="M31.9725 14.733L34.0121 10.1803L29.686 7.69609L28.6603 2.81375L23.6998 3.34648L20.0002 0L16.3006 3.34656L11.3402 2.81383L10.3145 7.69609L5.98828 10.1802L8.02789 14.7329L5.98828 19.2855L10.3145 21.7697L11.3402 26.652L11.7183 26.6114L13.083 26.4645L14.4469 26.3184L14.8125 26.2794H14.8133L16.3006 26.1192L17.4193 27.1309L18.5997 28.1987L18.9677 28.5316L19.5082 29.0205L20.0003 29.4658L20.4924 29.0205L21.033 28.5316L21.4009 28.1987L22.3188 27.3691L22.3196 27.3684L23.6999 26.1193L26.1106 26.3779H26.1114L26.3567 26.4045L26.9176 26.4646H26.9184L28.2823 26.6115L28.6604 26.6521L29.6861 21.7698L34.0123 19.2856L31.9725 14.733ZM20.0002 23.9125C14.939 23.9125 10.8206 19.7949 10.8206 14.7329C10.8206 9.67164 14.939 5.55328 20.0002 5.55328C25.0615 5.55328 29.1798 9.67164 29.1798 14.7329C29.1798 19.7949 25.0615 23.9125 20.0002 23.9125Z" fill="#C20E1A"/>
</g>
<defs>
<clipPath id="clip0">
<rect width="40" height="40" fill="white"/>
</clipPath>
</defs>
</svg>
