<svg width="35" height="35" viewBox="0 0 35 35" fill="none" xmlns="http://www.w3.org/2000/svg">
<g clip-path="url(#clip0)">
<path d="M19.5586 29.2245V34.9324L22.6468 32.1873L25.7351 34.9324V29.2245C24.7985 29.6706 23.7514 29.9207 22.6468 29.9207C21.5423 29.9207 20.4952 29.6706 19.5586 29.2245Z" fill="#C20E1A"/>
<path d="M22.6471 27.8618C25.4897 27.8618 27.7941 25.5574 27.7941 22.7147C27.7941 19.8721 25.4897 17.5677 22.6471 17.5677C19.8044 17.5677 17.5 19.8721 17.5 22.7147C17.5 25.5574 19.8044 27.8618 22.6471 27.8618Z" fill="#C20E1A"/>
<path d="M0 0.067688V26.8324H16.7371C15.9207 25.6644 15.4412 24.2447 15.4412 22.7148C15.4412 18.7414 18.6737 15.5089 22.6471 15.5089C26.6204 15.5089 29.8529 18.7414 29.8529 22.7148C29.8529 24.2447 29.3734 25.6644 28.5571 26.8324H35V0.067688H0ZM12.3529 22.7148H6.17647V20.6559H12.3529V22.7148ZM13.3824 18.5971H6.17647V16.5383H13.3824V18.5971ZM16.4706 14.4795H6.17647V12.4206H16.4706V14.4795ZM28.8235 10.3618H6.17647V8.30298H28.8235V10.3618ZM28.8235 6.24416H6.17647V4.18534H28.8235V6.24416Z" fill="#C20E1A"/>
</g>
<defs>
<clipPath id="clip0">
<rect width="35" height="35" fill="white"/>
</clipPath>
</defs>
</svg>
