<svg width="37" height="37" viewBox="0 0 37 37" fill="none" xmlns="http://www.w3.org/2000/svg">
<g clip-path="url(#clip0)">
<path d="M2.17578 0V5.08801C2.17578 9.41817 4.78218 13.2749 8.73545 14.9125C8.93423 17.4472 10.1141 19.8187 12.0414 21.51C13.099 22.4381 13.7995 23.6822 14.0468 25.0294H22.9519C23.199 23.6822 23.8996 22.4381 24.9572 21.51C26.8845 19.8187 28.0644 17.4472 28.2632 14.9125C32.2164 13.2749 34.8228 9.41817 34.8228 5.08801V0C33.8476 0 2.81443 0 2.17578 0V0ZM4.35225 5.08801V2.17647H8.70519V12.4842C6.05135 11.0134 4.35225 8.20544 4.35225 5.08801ZM21.2301 12.3777L21.8749 16.1364L18.4993 14.3618L15.1238 16.1364L15.7685 12.3777L13.0377 9.71584L16.8115 9.16744L18.4993 5.74777L20.1871 9.16744L23.9609 9.71584L21.2301 12.3777ZM32.6464 5.08801C32.6464 8.20544 30.9473 11.0134 28.2934 12.4842V2.17647H32.6464V5.08801Z" fill="#C20E1A"/>
<path d="M10.8828 27.2059H26.1181V30.4706H10.8828V27.2059Z" fill="#C20E1A"/>
<path d="M28.294 32.6471H8.70577V34.8236H6.5293V37H30.4705V34.8236H28.294V32.6471Z" fill="#C20E1A"/>
<path d="M18.7418 11.1568L18.4994 10.6655L18.2569 11.1568L17.7148 11.2355L18.1072 11.6179L18.0145 12.1578L18.4994 11.9029L18.9843 12.1578L18.8916 11.6179L19.2839 11.2355L18.7418 11.1568Z" fill="#C20E1A"/>
</g>
<defs>
<clipPath id="clip0">
<rect width="37" height="37" fill="white"/>
</clipPath>
</defs>
</svg>
