<svg width="40" height="40" viewBox="0 0 40 40" fill="none" xmlns="http://www.w3.org/2000/svg">
<g clip-path="url(#clip0)">
<path d="M17.3374 32.041C17.8907 32.5943 18.7911 32.5943 19.3444 32.041C19.8977 31.4877 19.8977 30.5874 19.3444 30.034L15.794 26.4836L15.7939 25.9983C15.7934 23.2957 13.5945 21.097 10.8918 21.097H5.18164V29.1171L7.08625 29.1172L14.8591 36.8901C16.8362 36.8898 24.3844 36.8885 28.7464 36.8875V35.4697C28.7464 34.688 28.1105 34.0521 27.3288 34.0521H20.594C19.9471 34.5377 19.1641 34.8003 18.3409 34.8003C17.3357 34.8003 16.3908 34.4089 15.6801 33.6982L10.7594 28.7776L12.4166 27.1203L17.3374 32.041Z" fill="#C20E1A"/>
<path d="M9.41406 3.1098H19.7119V7.03605H9.41406V3.1098Z" fill="#C20E1A"/>
<path d="M0 31.7082H1.65664C2.3082 31.7082 2.83828 31.1782 2.83828 30.5266V21.097H0V31.7082Z" fill="#C20E1A"/>
<path d="M27.3574 13.1971V3.1098H22.0547V13.1971L24.706 12.0237L27.3574 13.1971Z" fill="#C20E1A"/>
<path d="M29.7031 3.1098H40.0009V7.03605H29.7031V3.1098Z" fill="#C20E1A"/>
<path d="M29.7022 16.7976L24.707 14.5867L19.7119 16.7976V9.37988H9.41406V18.7533H10.892C14.7178 18.7533 17.8609 21.7343 18.1205 25.4956L21.0019 28.3769C21.9064 29.2814 22.2533 30.5357 22.0424 31.7084H27.3291C28.7619 31.7084 30.0099 32.5139 30.6448 33.6958H40V9.37988H29.7022V16.7976ZM33.6226 29.77H28.5355V27.4263H33.6226V29.77ZM36.1715 24.6724H28.5355V22.3286H36.1715V24.6724Z" fill="#C20E1A"/>
</g>
<defs>
<clipPath id="clip0">
<rect width="40" height="40" fill="white"/>
</clipPath>
</defs>
</svg>
