<svg width="253" height="81" viewBox="0 0 253 81" fill="none" xmlns="http://www.w3.org/2000/svg">
<path d="M252.299 63.8663C252.299 65.8499 251.467 67.3927 249.906 68.6049C248.345 69.8171 246.472 70.4783 244.391 70.4783C242.31 70.4783 240.749 70.0375 239.5 69.0457C238.252 68.1641 237.731 67.2825 237.731 66.6213C237.731 66.1805 238.252 65.5193 239.292 64.5275C240.333 63.5357 241.165 62.9847 241.894 62.7643C243.35 63.8663 244.495 65.7397 245.432 68.1641C246.472 68.0539 246.992 67.5029 246.992 66.5111C246.992 65.0785 245.848 63.0949 243.454 60.5603C241.061 57.9155 239.917 55.9319 239.917 54.3891C239.917 52.8463 240.541 51.6341 241.894 50.8627C243.246 49.9811 244.807 49.6505 246.576 49.6505C248.449 49.6505 249.802 49.9811 250.738 50.6423C251.675 51.3035 252.091 52.2953 252.091 53.3973C252.091 54.6095 251.259 56.2625 249.49 58.2461C249.698 58.4665 249.906 58.7971 250.322 59.1277C250.634 59.4583 251.05 60.1195 251.571 61.1113C251.987 62.1031 252.299 62.9847 252.299 63.8663ZM249.906 53.3973C249.906 52.2953 249.177 51.7443 247.825 51.7443C247.2 51.7443 246.576 51.8545 246.16 52.1851C245.744 52.5157 245.536 52.8463 245.536 53.1769C245.536 53.8381 246.16 54.8299 247.409 56.0421L248.033 56.5931C249.282 55.4911 249.906 54.4993 249.906 53.3973Z" fill="#F55A3E"/>
<path d="M218.585 52.405C218.585 53.7274 218.169 55.9314 217.441 59.0169C216.608 62.2127 216.296 64.1963 216.296 65.1881C216.296 66.1799 216.4 66.6207 216.712 66.6207C216.921 66.6207 217.545 66.2901 218.689 65.7391L219.21 65.4085L219.938 67.0615C219.626 67.2819 219.314 67.6125 218.898 67.9431C218.481 68.2737 217.649 68.8247 216.504 69.4859C215.36 70.1471 214.215 70.4777 213.175 70.4777C212.134 70.4777 211.406 70.1471 210.781 69.4859C210.157 68.8247 209.949 67.9431 209.949 66.8411C209.949 65.7391 210.261 63.7555 210.99 60.8903C211.718 58.0252 212.03 56.1518 212.03 55.2702C212.03 53.9478 211.614 52.7356 210.885 51.6336L210.469 51.0826V50.5316C212.03 50.0908 214.527 49.8704 217.961 49.8704C218.377 50.201 218.585 51.0826 218.585 52.405ZM213.591 44.6911C212.967 44.1401 212.758 43.2585 212.758 42.2667C212.758 41.2749 213.175 40.3933 213.903 39.6219C214.735 38.8505 215.568 38.5199 216.712 38.5199C217.753 38.5199 218.585 38.8505 219.106 39.4015C219.73 40.0627 219.938 40.8341 219.938 41.8259C219.938 42.8177 219.522 43.6993 218.689 44.4707C217.857 45.242 216.921 45.5726 215.88 45.5726C214.944 45.5726 214.215 45.242 213.591 44.6911Z" fill="#F55A3E"/>
<path d="M81.2333 70.4827C80.1928 70.4827 79.3604 70.1521 78.736 69.3807C78.1117 68.7195 77.7996 67.7277 77.7996 66.4053C77.7996 65.083 78.5279 61.1158 79.9847 54.1734C81.4414 47.3411 82.1698 42.3822 82.1698 39.2967L81.8576 37.3131C84.1468 36.4315 86.2279 36.101 88.2049 36.101C88.517 36.5417 88.6211 37.3131 88.6211 38.3049C88.6211 40.7293 87.8927 45.4678 86.436 52.5204C84.9793 59.5731 84.2509 63.6504 84.2509 64.7524C84.2509 65.8544 84.3549 66.5155 84.6671 66.5155L87.6846 65.4136L88.5171 67.0665C87.5806 67.9481 86.3319 68.6093 84.9792 69.3807C83.4184 70.0419 82.1698 70.4827 81.2333 70.4827Z" fill="black"/>
<path d="M87.0601 61.8828C87.0601 58.0256 88.2047 55.0501 90.3898 52.846C92.5749 50.642 95.0723 49.5399 97.8817 49.5399C99.5466 49.5399 101.003 49.9807 102.044 50.8624C103.188 51.744 103.709 52.9562 103.709 54.3889C103.709 55.9318 103.397 57.144 102.668 58.1358C101.94 59.1277 101.107 59.8991 100.067 60.4501C97.9858 61.5522 96.1128 62.2134 94.4479 62.4338L93.4074 62.544C93.6155 65.4093 94.7601 66.842 96.7371 66.842C97.4655 66.842 98.1939 66.6216 98.9223 66.2909C99.7547 65.9603 100.275 65.5195 100.795 65.1889L101.42 64.6379L102.46 66.0705C102.252 66.4012 101.732 66.842 101.107 67.393C100.379 67.944 99.7547 68.3848 99.1304 68.8256C97.4655 69.8175 95.5925 70.2583 93.6155 70.2583C91.6385 70.2583 90.0776 69.4869 88.829 68.0542C87.5803 66.7318 87.0601 64.6379 87.0601 61.8828ZM96.7371 58.4665C97.5696 57.4746 98.0898 56.042 98.0898 54.3889C98.0898 52.7358 97.6736 51.8542 96.7371 51.8542C95.5925 51.8542 94.7601 52.846 94.2398 54.8297C93.6155 56.8134 93.3033 58.6869 93.3033 60.3399C94.7601 60.1195 95.9047 59.4583 96.7371 58.4665Z" fill="black"/>
<path d="M106.623 49.5399C107.872 49.5399 108.808 49.8705 109.433 50.4216C110.057 50.9726 110.369 52.0746 110.369 53.8379C110.369 54.7195 110.057 56.593 109.537 59.4583C109.016 62.3237 108.704 63.9767 108.704 64.638C108.704 65.8502 108.912 66.5114 109.433 66.5114C110.577 66.5114 111.722 65.6298 113.074 63.8665C114.427 62.1033 115.051 60.6706 115.156 59.5685L112.242 56.042C112.346 54.7195 112.658 53.5073 113.179 52.4052C113.699 51.3032 114.115 50.5318 114.531 50.2011L115.156 49.6501C116.404 49.6501 117.341 49.9807 117.965 50.7522C118.589 51.4134 118.901 52.295 118.901 53.2869C118.901 55.7114 118.381 58.2461 117.237 61.0012C116.092 63.6461 114.635 65.9604 112.762 67.8339C110.889 69.7074 109.016 70.6992 107.039 70.6992C105.791 70.6992 104.854 70.2584 104.23 69.487C103.606 68.7155 103.293 67.6135 103.293 66.291C103.293 64.9686 103.397 63.2053 103.606 61.0012C103.814 58.7971 103.918 56.593 103.918 54.3889C103.918 53.9481 103.71 53.2869 103.397 52.6256C103.085 51.9644 102.773 51.4134 102.357 50.9726L102.461 50.4216C103.918 49.7603 105.375 49.5399 106.623 49.5399Z" fill="black"/>
<path d="M117.132 61.8828C117.132 58.0256 118.276 55.0501 120.462 52.846C122.647 50.642 125.144 49.5399 127.953 49.5399C129.618 49.5399 131.075 49.9807 132.116 50.8624C133.26 51.744 133.78 52.9562 133.78 54.3889C133.78 55.9318 133.468 57.144 132.74 58.1358C132.011 59.1277 131.179 59.8991 130.139 60.4501C128.057 61.5522 126.184 62.2134 124.52 62.4338L123.479 62.544C123.687 65.4093 124.832 66.842 126.809 66.842C127.537 66.842 128.266 66.6216 128.994 66.2909C129.826 65.9603 130.347 65.5195 130.867 65.1889L131.491 64.6379L132.532 66.0705C132.324 66.4012 131.803 66.842 131.179 67.393C130.451 67.944 129.826 68.3848 129.202 68.8256C127.537 69.8175 125.664 70.2583 123.687 70.2583C121.71 70.2583 120.149 69.4869 118.901 68.0542C117.756 66.7318 117.132 64.6379 117.132 61.8828ZM126.913 58.4665C127.745 57.4746 128.266 56.042 128.266 54.3889C128.266 52.7358 127.849 51.8542 126.913 51.8542C125.768 51.8542 124.936 52.846 124.416 54.8297C123.791 56.8134 123.479 58.6869 123.479 60.3399C124.832 60.1195 125.976 59.4583 126.913 58.4665Z" fill="black"/>
<path d="M135.862 70.4801C134.821 70.4801 133.989 70.1495 133.364 69.3781C132.74 68.7169 132.428 67.7251 132.428 66.4027C132.428 65.0803 133.156 61.113 134.613 54.1704C136.07 47.3379 136.798 42.3789 136.798 39.2932L136.486 37.3096C138.775 36.428 140.856 36.0974 142.833 36.0974C143.145 36.5382 143.249 37.3096 143.249 38.3014C143.249 40.7259 142.521 45.4645 141.064 52.5173C139.607 59.5702 138.879 63.6476 138.879 64.7497C138.879 65.8517 138.983 66.5129 139.295 66.5129L142.313 65.4109L143.145 67.0639C142.209 67.9455 140.96 68.6067 139.607 69.3781C138.047 70.0393 136.798 70.4801 135.862 70.4801Z" fill="black"/>
<path d="M140.649 80.1763C140.545 79.8457 140.441 78.9641 140.441 77.7519C140.441 76.5397 140.961 73.1236 142.106 67.6137C143.25 62.1038 143.77 57.9162 143.77 54.9409C143.77 54.3899 143.666 53.7287 143.354 53.0675C143.042 52.4063 142.834 51.8553 142.522 51.5247L142.106 50.9737V50.4228C143.458 49.982 145.851 49.7616 149.285 49.7616C149.597 50.4228 149.806 51.3043 149.91 52.5165C152.095 50.533 153.968 49.6514 155.528 49.6514C156.985 49.6514 158.234 50.3126 159.17 51.6349C160.107 52.9573 160.523 54.9409 160.523 57.4754C160.523 61.8834 159.795 65.1893 158.234 67.3933C156.673 69.5972 154.8 70.589 152.407 70.589C151.158 70.589 150.222 70.3686 149.389 70.038L148.973 69.8176L150.534 67.9443C150.846 68.0545 150.534 67.9443 150.742 67.9443C151.47 67.8341 151.574 67.7239 152.199 67.0627C152.719 66.2913 153.239 65.4097 153.447 64.3077C154.072 61.9936 154.28 59.8998 154.28 58.0264C154.28 55.2715 153.76 53.8389 152.719 53.8389C151.887 53.8389 150.95 54.1695 150.014 54.9409C149.91 57.0346 149.285 60.8916 148.245 66.1811C147.204 71.5808 146.684 75.8785 146.684 79.1845C145.123 79.6253 143.042 80.0661 140.649 80.1763Z" fill="black"/>
<path d="M161.251 70.0374H160.939C160.834 69.8169 160.834 69.2659 160.834 68.3843C160.834 67.5027 161.251 65.1885 161.979 61.3315C162.811 57.4744 163.124 55.2704 163.124 54.7194C163.124 53.7276 162.707 52.7358 161.875 51.6337L161.459 51.0827V50.5317C163.02 50.0909 165.517 49.8705 168.951 49.8705C169.263 50.6419 169.471 51.7439 169.471 53.1766C169.783 52.6256 170.407 51.8541 171.448 50.9725C172.489 50.0909 173.529 49.5399 174.57 49.5399C176.13 49.5399 176.963 50.9725 176.963 53.8378C176.859 54.0582 176.651 54.2786 176.339 54.499C176.13 54.8296 175.61 55.1602 174.882 55.7112C174.153 56.2622 173.425 56.5928 172.697 56.703C172.697 56.703 172.384 56.2622 171.968 55.4908C171.552 54.6092 171.136 54.2786 170.928 54.2786C170.199 54.6092 169.575 55.05 169.055 55.7112C167.702 62.1029 167.078 66.1803 167.078 68.0537C167.078 68.7149 167.078 69.1557 167.078 69.4863C166.349 69.8169 164.268 70.0374 161.251 70.0374Z" fill="black"/>
<path d="M180.085 70.4783C178.108 70.4783 176.547 69.7069 175.402 68.2743C174.258 66.8416 173.737 64.7478 173.737 61.9928C173.737 58.5766 174.57 55.7113 176.339 53.1767C178.108 50.7523 180.397 49.5401 183.518 49.5401L185.079 49.6503C185.6 49.3197 186.12 49.2095 186.744 49.2095C189.033 49.2095 190.178 51.5237 190.178 56.0419C191.322 55.9317 192.571 55.8215 193.82 55.4909L194.548 55.2705L194.86 57.0337C193.924 57.4746 192.571 57.8052 191.01 58.1358L190.178 58.3562C189.658 61.552 188.513 64.4172 186.848 66.7314C184.975 69.2661 182.79 70.4783 180.085 70.4783ZM182.478 66.511C183.727 66.511 184.767 65.6294 185.808 63.9764C186.744 62.3234 187.472 60.5602 187.785 58.6868C184.663 58.6868 183.102 57.4746 183.102 55.0501C183.102 54.0583 183.31 53.1767 183.622 52.2951L183.831 51.8543C183.727 51.7441 183.518 51.7441 183.414 51.7441C183.206 51.7441 183.102 51.7441 182.998 51.8543C182.27 52.2951 181.541 53.5073 180.917 55.2705C180.293 57.0337 179.981 59.1276 179.981 61.4418C180.085 64.858 180.917 66.511 182.478 66.511Z" fill="black"/>
<path d="M194.548 39.5126C194.548 38.5208 194.444 37.7494 194.236 37.3086C196.525 36.427 198.606 36.0964 200.583 36.0964C200.895 36.427 200.999 37.0882 200.999 38.1902C200.999 40.7247 200.167 45.5734 198.606 52.8465C201.207 50.6425 203.705 49.5406 206.202 49.5406C207.346 49.5406 208.283 49.8712 209.115 50.6425C209.948 51.4139 210.26 52.4057 210.26 53.8383C210.26 56.483 208.179 58.3564 204.121 59.5686C205.057 62.7643 205.89 64.9683 206.618 66.0702C206.93 66.511 207.138 66.8416 207.346 66.8416C207.659 66.8416 208.283 66.6212 209.323 66.0702L209.844 65.8498L210.572 67.3926C209.844 68.0538 208.907 68.715 207.659 69.4864C206.41 70.1476 205.265 70.4781 204.329 70.4781C202.04 70.4781 200.479 68.2742 199.542 63.9765C199.126 62.1031 198.918 60.34 198.814 58.687C200.687 58.2462 202.04 57.6952 202.976 57.034C203.913 56.3728 204.329 55.4912 204.329 54.4995C204.329 53.5077 203.809 52.9567 202.872 52.9567C201.936 52.9567 200.271 53.9485 197.878 56.0422C196.421 62.5439 195.692 66.9518 195.692 69.3762C194.132 69.817 192.051 70.1476 189.449 70.1476C189.449 69.5966 189.449 69.1558 189.449 68.715C189.449 67.3926 190.282 62.8745 191.947 55.1607C193.715 47.4468 194.548 42.2675 194.548 39.5126Z" fill="#F55A3E"/>
<path d="M239.812 67.0623C237.315 69.2663 235.234 70.3683 233.361 70.3683C231.488 70.3683 230.447 69.3765 230.135 67.3929C229.303 68.2745 228.262 69.0459 227.222 69.5969C226.181 70.1479 225.244 70.3683 224.412 70.3683C223.059 70.3683 221.811 69.7071 220.874 68.3847C219.938 67.0623 219.417 65.0787 219.417 62.4339C219.417 58.3565 220.25 55.1607 221.811 52.8465C223.476 50.5322 225.245 49.32 227.326 49.32C229.407 49.32 231.072 49.7608 232.424 50.7526C233.361 45.7936 233.777 41.8264 233.777 39.0714L233.569 37.0878C235.754 36.3164 237.835 35.8756 239.916 35.8756C240.124 36.4266 240.228 36.9776 240.228 37.6388C240.228 39.8428 239.604 44.4712 238.355 51.3036C237.107 58.1361 236.482 62.7645 236.482 65.2991C236.482 66.0705 236.69 66.4011 237.003 66.4011C237.211 66.4011 237.731 66.0705 238.667 65.5195L239.084 65.1889L239.812 67.0623ZM229.303 52.1852C228.262 52.1852 227.43 53.2873 226.701 55.3811C225.973 57.4749 225.557 59.5687 225.557 61.6625C225.557 63.7563 225.661 65.0787 225.973 65.6297C226.285 66.1807 226.701 66.5113 227.222 66.5113C228.158 66.5113 229.095 66.0705 230.031 65.2991C230.135 64.0869 230.759 60.0095 232.008 53.0668C231.071 52.5158 230.135 52.1852 229.303 52.1852Z" fill="#F55A3E"/>
<path d="M48.6648 39.9524C48.0405 40.6136 47.3121 41.1646 46.4796 41.7156C46.0634 42.0462 45.6472 42.3767 45.127 42.5971C45.127 42.7073 45.127 42.8175 45.231 42.8175C45.6472 44.3603 46.9999 45.3521 48.1445 45.0215C49.2891 44.6909 50.0175 43.1481 49.7053 41.6054C49.4972 40.9442 49.081 40.3932 48.6648 39.9524Z" fill="#231F1E"/>
<path d="M31.9122 55.2708C33.1765 55.2708 34.2014 53.9387 34.2014 52.2955C34.2014 50.6523 33.1765 49.3202 31.9122 49.3202C30.6479 49.3202 29.623 50.6523 29.623 52.2955C29.623 53.9387 30.6479 55.2708 31.9122 55.2708Z" fill="black"/>
<path d="M46.6026 54.5038C47.8228 54.1532 48.4825 52.5832 48.0761 50.9973C47.6697 49.4114 46.3511 48.41 45.131 48.7607C43.9108 49.1113 43.2511 50.6813 43.6574 52.2672C44.0638 53.8531 45.3824 54.8545 46.6026 54.5038Z" fill="black"/>
<path d="M52.6182 47.8878C52.6182 46.4552 52.3061 44.0309 50.7452 41.6066C50.225 40.8352 49.7047 40.174 48.9763 39.623C48.248 40.3944 47.4155 41.0556 46.479 41.7168C47.1033 41.827 47.6236 42.1576 47.9358 42.7086C48.352 43.1493 48.5601 43.8105 48.4561 44.3615C48.0398 43.9207 47.7277 43.5901 47.3115 43.3697C46.8952 43.1493 46.5831 42.9289 46.1669 42.9289C45.7506 42.8188 45.2304 42.8188 44.8142 42.9289C43.1493 43.9207 41.2763 44.8023 39.0912 45.4635C37.6344 46.0145 35.9695 46.6756 34.3047 47.5572C34.929 48.7694 35.1371 50.4223 34.5128 51.7447C33.4722 53.9486 30.8709 55.7118 29.1019 53.8384C28.5817 53.2874 28.2695 52.4059 28.2695 51.5243C27.333 52.4059 26.3965 53.3976 25.7722 54.6098C23.3789 58.6871 24.9398 64.0867 28.9979 66.2907C29.1019 66.2907 29.102 66.4009 29.206 66.4009C31.4952 67.5028 33.3682 67.7232 35.1371 67.5028H35.7614C35.8655 67.613 35.9695 67.7232 36.0736 67.8334C37.0101 68.9354 38.3628 69.5966 39.8195 69.5966C41.1722 69.5966 42.525 68.9354 43.5655 67.8334C43.7736 67.613 43.8777 67.3926 44.0858 67.1722H44.606H44.9182C46.5831 67.2824 47.5196 67.062 49.4966 66.0703C49.8088 65.9601 55.3237 63.3153 55.7399 56.4831C55.6358 51.8549 53.2426 48.6592 52.6182 47.8878ZM50.329 53.618C49.4966 54.8302 48.1439 54.9404 48.0398 54.9404C46.1668 55.0506 44.606 53.067 44.1898 51.4141C43.6696 49.6509 43.9817 47.1164 45.5425 46.345C47.9358 45.0227 49.1844 47.447 50.0169 48.9898C50.225 49.2102 51.5777 51.8549 50.329 53.618Z" fill="#AFAFAF"/>
<path fill-rule="evenodd" clip-rule="evenodd" d="M76.7593 43.4788C74.7823 36.0952 65.4174 31.5769 54.3877 30.6953C54.0755 33.3402 54.2836 36.2054 52.7228 38.0789C53.035 38.4095 53.2431 38.7401 53.4512 39.0707C55.4282 42.0462 55.8444 45.242 55.8444 47.1155C56.5728 48.1073 59.6944 52.1848 59.3823 58.0255C58.862 66.7315 51.6823 70.0376 51.3701 70.258C48.8728 71.4702 47.6241 71.8008 45.5431 71.6906H45.2309C44.9188 72.2416 44.6066 72.7926 44.1904 73.2334C42.9417 74.6661 42.2133 74.4457 40.4444 74.4457L39.1958 75.1069C37.4268 75.1069 35.866 74.7763 34.6174 73.3436C34.3052 73.013 34.0971 72.6824 33.785 72.2416H33.1606C31.2877 72.462 28.7903 72.462 26.189 71.6906C25.8768 72.2416 24.8363 72.6824 24.212 73.013C24.1079 74.0048 24.1079 75.1069 23.8998 76.6497L13.2863 72.462L13.3904 68.7151L18.8012 68.6049C18.9052 68.3845 19.0093 68.1641 19.1133 68.0539C11.7255 61.001 11.5174 47.9971 20.0498 41.0543C20.8822 40.3931 21.5066 40.0625 21.5066 40.0625C21.0903 39.6217 22.235 38.6299 21.8187 38.0789C7.8755 45.4624 -2.1137 57.0337 0.383597 66.4009C1.7363 71.36 8.60386 77.4211 20.0498 78.6333C22.339 78.8537 24.6282 79.2946 27.0214 79.2946C32.5363 79.2946 38.6755 78.3027 44.8147 76.4293C65.6255 70.0376 79.985 55.2704 76.7593 43.4788Z" fill="black"/>
<path d="M47.52 38.3003C47.7283 38.3003 47.9366 38.19 48.1449 38.19C48.3532 37.8593 48.5615 37.4182 48.8739 36.9772C48.4573 37.4182 47.9366 37.8593 47.52 38.3003Z" fill="#3A3A3A"/>
<path d="M29.623 44.5822C29.7271 44.1414 29.9352 43.7005 30.2474 43.3699C30.5595 43.0393 30.9757 42.8189 31.3919 42.7087C31.496 42.7087 31.6001 42.7087 31.7041 42.7087C31.8082 42.7087 31.8082 42.7087 31.9122 42.7087C32.0163 42.7087 32.0163 42.7087 32.1203 42.7087C32.3284 42.7087 32.5366 42.8189 32.7447 42.8189C33.1609 43.0393 33.473 43.2597 33.6812 43.5903C33.369 43.3699 32.9528 43.1495 32.6406 43.0393C32.4325 43.0393 32.2244 42.9291 32.1203 42.9291C32.0163 42.9291 31.9122 42.9291 31.8082 42.9291C31.7041 42.9291 31.6001 42.9291 31.496 42.9291C31.0798 43.0393 30.7676 43.1495 30.4555 43.4801C30.0393 43.9209 29.8312 44.2516 29.623 44.5822Z" fill="white"/>
<path d="M46.5841 34.7736C45.1274 31.3574 42.0057 28.9329 38.2598 28.7125C32.849 28.2717 28.2706 32.4594 27.5422 38.0797C33.0571 36.0961 40.9652 36.8675 46.5841 34.7736Z" fill="#F55A3E"/>
<path d="M46.4795 39.1838C46.7919 39.0734 47.2085 38.8526 47.521 38.7422C47.521 38.6318 47.521 38.4109 47.521 38.3005C47.2085 38.5214 46.7919 38.8526 46.4795 39.1838Z" fill="#F55A3E"/>
<path d="M39.7166 29.4839C40.7572 29.5941 41.7978 29.8145 42.7343 30.2553C41.3815 29.3737 39.9248 28.9329 38.2599 28.7125C32.849 28.2717 28.2706 32.4594 27.5422 38.0797C28.0625 37.8593 28.5828 37.7491 29.1031 37.6389C30.3517 32.5696 34.722 29.0431 39.7166 29.4839Z" fill="black"/>
<path fill-rule="evenodd" clip-rule="evenodd" d="M25.4603 66.6221C23.2751 65.2997 19.1129 62.1038 18.1765 57.0345C16.9278 50.2019 19.5292 44.0305 24.4197 40.7245C30.0387 36.8674 40.8603 38.851 47.5198 35.5449C48.5603 34.9939 49.809 34.3327 50.6414 33.4511C52.4104 31.5776 50.6415 37.0878 44.8144 41.3857C42.9414 42.8183 40.5482 44.0305 37.6346 44.9122C30.663 47.557 18.6967 53.2876 24.6278 64.3079C24.94 64.8589 25.5643 65.6303 25.9805 66.2915C26.813 67.5038 26.813 67.5038 25.4603 66.6221Z" fill="#F55A3E"/>
<path fill-rule="evenodd" clip-rule="evenodd" d="M24.4194 40.8343C19.6329 44.1404 16.9275 50.3116 18.1761 57.1441C18.9045 60.7807 21.2977 63.5357 23.4829 65.299C21.818 63.6459 20.3613 61.4419 19.841 58.6869C18.5923 51.8544 21.1937 45.6832 26.0842 42.3771C26.8126 41.8261 27.645 41.4955 28.5815 41.1649C32.2234 39.1813 37.4262 38.5201 42.2126 37.5283L42.1086 37.4181C35.8653 38.2997 28.5815 37.8589 24.4194 40.8343Z" fill="black"/>
<path fill-rule="evenodd" clip-rule="evenodd" d="M21.403 76.0987C23.9003 76.5395 26.1895 76.6497 28.6868 76.5395C33.5774 76.3191 38.8841 75.5477 44.1909 73.8947C63.9612 67.9438 77.4882 53.9483 74.4706 42.7078C72.5977 35.7651 64.7936 31.4673 54.2841 30.5857C53.972 33.1203 53.1396 35.7651 51.5787 37.5284C51.7869 37.859 52.099 38.1896 52.3071 38.5202C54.1801 41.3854 54.5963 44.3608 54.5963 46.124C55.3247 47.0056 58.2382 50.9729 57.926 56.4829C57.4058 64.748 50.6422 67.9438 50.3301 68.054C47.9368 69.2662 46.7923 69.4866 44.8152 69.3764H44.503C44.2949 69.9274 43.8787 70.3682 43.5666 70.809C42.422 72.1314 40.7571 72.9028 39.0922 73.013C37.4274 73.013 35.7625 72.2416 34.6179 70.9192C34.3057 70.5886 34.0976 70.258 33.8895 69.9274H33.2652C31.1841 70.1478 28.3747 70.1478 25.4611 68.9356C25.3571 68.8254 25.253 68.8254 25.0449 68.7152C14.0152 63.646 12.1422 47.8872 21.6111 40.1732C22.4436 39.512 22.9639 39.1814 22.9639 39.1814C22.5476 38.7406 22.1314 38.2998 21.8193 37.7488C8.50032 44.6914 0.48814 55.3809 2.88139 64.3072C3.92193 68.2744 7.04356 71.2498 11.3098 73.3436C13.1828 74.2253 15.3679 75.1069 17.3449 75.4375L21.403 76.0987Z" fill="#F55A3E"/>
<path d="M34.3049 47.5568C34.409 47.7772 34.6171 47.9976 34.6171 48.3282C34.7211 48.5486 34.7211 48.8793 34.8252 49.0997C34.8252 49.3201 34.8252 49.6507 34.8252 49.8711C34.8252 50.0916 34.7211 50.4222 34.7211 50.6426C34.6171 50.863 34.6171 51.1936 34.513 51.4141C34.4089 51.6345 34.3049 51.9651 34.0968 52.1855C33.7846 52.6264 33.4724 53.0672 33.0562 53.3978C33.3683 52.957 33.6805 52.5162 33.9927 52.0753C34.2008 51.6345 34.4089 51.0834 34.513 50.6426C34.6171 50.0916 34.6171 49.6507 34.6171 49.0997C34.6171 48.8793 34.513 48.5486 34.513 48.3282C34.513 47.9976 34.409 47.7772 34.3049 47.5568Z" fill="black"/>
<path d="M44.1902 51.4136C44.0861 51.083 43.982 50.7524 43.982 50.4218C43.982 50.0912 43.878 49.7606 43.982 49.3199C43.982 48.9893 44.0861 48.6587 44.0861 48.2179C44.0861 47.9975 44.1902 47.8873 44.1902 47.6669C44.2942 47.5567 44.2942 47.3363 44.3982 47.2261C44.6063 46.8955 44.8145 46.565 45.0226 46.3446C45.3347 46.1242 45.6469 46.014 45.959 45.9038C46.2712 45.7936 46.6874 45.7936 46.9996 45.7936C47.3117 45.7936 47.728 46.014 47.9361 46.1242C48.2482 46.3446 48.4563 46.565 48.6644 46.7853C48.8725 47.0057 49.0806 47.3363 49.2887 47.6669C49.4969 47.9975 49.6009 48.2179 49.809 48.5485C49.9131 48.6587 50.0171 48.8791 50.0171 48.9893C50.1212 49.0995 50.1212 49.3199 50.2252 49.4301C50.5374 50.0912 50.6414 50.7524 50.7455 51.5238C50.7455 52.185 50.6414 52.9563 50.2252 53.5073C50.4333 53.1767 50.5374 52.8461 50.6414 52.5156C50.6414 52.2952 50.7455 52.185 50.7455 51.9646C50.7455 51.7442 50.7455 51.634 50.7455 51.4136C50.7455 50.7524 50.5374 50.0912 50.2252 49.4301C50.1212 49.3199 50.1212 49.0995 50.0171 48.9893C49.9131 48.8791 49.809 48.6587 49.809 48.5485C49.6009 48.2179 49.4969 47.9975 49.2887 47.6669C48.8725 47.1159 48.4563 46.565 47.9361 46.2344C47.6239 46.014 47.4158 45.9038 47.1036 45.9038C46.9996 45.9038 46.7915 45.9038 46.5834 45.9038C46.3753 45.9038 46.2712 45.9038 46.1672 46.014C45.855 46.1242 45.5429 46.2344 45.3347 46.4548C45.1266 46.6751 44.9185 46.8955 44.7104 47.2261C44.6064 47.3363 44.6064 47.5567 44.5023 47.6669C44.5023 47.7771 44.3982 47.7771 44.3982 47.8873C44.3982 47.9975 44.2942 47.9975 44.2942 48.1077C44.1902 48.4383 44.1901 48.7689 44.0861 49.0995C44.0861 49.4301 44.0861 49.7606 44.0861 50.0912C44.0861 50.6422 44.0861 50.9728 44.1902 51.4136Z" fill="black"/>
<path d="M46.4783 51.7002C46.712 51.5231 46.7117 51.0988 46.4776 50.7525C46.2434 50.4063 45.8641 50.2691 45.6303 50.4462C45.3965 50.6233 45.3968 51.0476 45.631 51.3938C45.8651 51.7401 46.2445 51.8773 46.4783 51.7002Z" fill="white"/>
<path d="M32.417 51.8917C32.597 51.5099 32.5343 51.09 32.2769 50.954C32.0195 50.8179 31.665 51.0172 31.485 51.399C31.3051 51.7808 31.3678 52.2006 31.6252 52.3367C31.8825 52.4727 32.2371 52.2735 32.417 51.8917Z" fill="white"/>
<path d="M26.2927 38.3004C26.3967 37.0881 26.6048 35.8759 27.0211 34.7738C25.1481 32.1289 22.963 27.831 21.9224 24.1943C19.8413 16.9209 20.0494 10.4188 20.5697 6.12091C23.171 8.65559 27.0211 13.2841 28.9981 19.8964C29.9346 23.0923 30.5589 26.5086 30.871 29.3739C31.9116 28.4922 33.1602 27.831 34.5129 27.5004C33.4724 19.5657 31.0792 15.0474 29.7265 12.4025C26.6049 6.67192 21.194 -1.26273 17.9683 0.169913C16.7197 0.720931 16.1994 2.59439 15.9913 4.13724C15.5751 8.32498 15.2629 15.378 17.6562 23.6433C19.6332 30.3657 22.5467 35.4351 25.1481 39.0718C25.4602 38.8514 25.8765 38.631 26.2927 38.4106C26.1886 38.5208 26.1886 38.4106 26.2927 38.3004Z" fill="#AFAFAF"/>
<path d="M19.3216 25.9582C16.9283 17.693 17.2405 10.6401 17.6567 6.45236C17.8648 4.90953 18.3851 3.03609 19.6337 2.48508C21.1945 1.82386 23.2756 3.25649 25.2526 5.68095C22.6512 2.15447 19.8418 -0.490391 17.8648 0.281026C16.6162 0.832038 16.0959 2.70548 15.8878 4.24831C15.4716 8.43601 15.1594 15.489 17.5526 23.7542C19.5297 30.4765 22.4432 35.5458 25.0445 39.1825C25.1485 39.1825 25.1485 39.0723 25.2526 39.0723C23.0675 35.7662 20.8824 31.3581 19.3216 25.9582Z" fill="black"/>
<path d="M30.6633 22.2107C29.1025 16.9209 26.3971 13.0637 24.1079 10.3086C25.9809 12.8433 27.7498 16.0392 28.9984 20.0066C29.9349 23.2026 30.5592 26.6189 30.8714 29.4843C31.2876 29.1536 31.7039 28.823 32.2241 28.6026C31.8079 26.5087 31.2876 24.3046 30.6633 22.2107Z" fill="black"/>
<path d="M62.7124 31.9081C64.0651 29.1531 64.7935 25.9572 64.6894 22.7614C64.6894 21.99 64.5854 21.439 64.5854 20.888C64.1692 16.8105 62.6084 12.9534 59.9029 10.0882C58.03 7.88414 55.1164 7.22293 52.2029 7.88414C50.3299 8.32495 48.561 9.42697 47.4165 11.08C46.6881 12.0718 43.7745 16.0391 42.0056 25.296C41.7975 26.2878 41.5894 27.1695 41.4854 28.1613C42.5259 28.6021 43.5664 29.1531 44.3989 29.8143C45.1272 26.9491 46.584 22.8716 49.3935 16.9207C49.6016 18.5737 50.2259 20.2267 50.8502 21.6594C52.5151 25.1858 55.7408 31.0265 58.9664 32.5693C60.5272 33.0102 62.0881 33.1204 62.7124 31.9081Z" fill="#AFAFAF"/>
<path d="M60.1102 31.6876C58.6534 31.0263 57.1967 29.5937 55.948 27.8304C53.7629 25.2957 51.89 21.7691 50.7454 19.3446C50.017 17.8017 49.4967 16.1487 49.1846 14.4956V16.5895C49.4967 18.2426 50.017 19.8956 50.7454 21.4385C52.5143 24.9651 55.844 31.0263 59.1737 32.5692C60.7345 33.1202 61.9831 33.1202 62.8156 32.1284C61.8791 32.2386 61.0466 32.0182 60.1102 31.6876Z" fill="black"/>
<path d="M42.0056 27.2797C43.8786 17.9125 46.6881 13.9452 47.4164 13.0636C48.6651 11.4105 50.3299 10.3085 52.2029 9.86769C55.1164 9.20648 58.0299 9.86769 59.9029 12.0717C62.5042 14.937 64.065 18.9043 64.5853 22.8716C64.5853 23.3124 64.6893 23.7532 64.6893 24.3042C64.6893 23.8634 64.6893 23.3124 64.6893 22.8716C64.6893 22.1002 64.5853 21.5492 64.5853 20.9981C64.1691 16.9207 62.6083 13.0636 59.9029 10.1983C58.0299 7.99425 55.1164 7.33303 52.2029 7.99425C50.3299 8.43506 48.561 9.53708 47.4164 11.1901C46.6881 12.1819 43.7745 16.1492 42.0056 25.4062C41.7975 26.3981 41.5894 27.2797 41.4854 28.2715C41.5894 28.2715 41.6934 28.3817 41.7975 28.3817C41.9016 27.9409 41.9016 27.6103 42.0056 27.2797Z" fill="black"/>
<path d="M44.3982 29.7042C45.0225 27.0594 46.5833 20.4472 49.0805 14.6064C49.1846 15.8187 49.1846 15.4881 49.3927 16.8105C49.3927 16.8105 46.6873 21.99 44.3982 29.7042Z" fill="black"/>
<path d="M52.0986 26.288C50.85 29.3738 49.081 31.7983 47.6243 33.4514C47.7283 33.6719 47.8324 34.0025 48.0405 34.2229C48.0405 34.2229 48.1445 34.2229 48.1445 34.1127C48.8729 33.7821 50.4337 32.9004 51.5783 32.129C51.9945 31.2473 52.5148 30.2554 53.2432 28.9329C52.8269 28.1615 52.4108 27.2798 52.0986 26.288Z" fill="#8D8D8D"/>
<path d="M52.0985 26.288C51.5782 27.6099 50.4336 29.5927 49.8093 30.6943L51.8904 27.9404C52.4106 28.7115 52.6187 28.9318 52.9309 29.5927C53.0349 29.3724 53.139 29.2623 53.243 29.0419C52.8268 28.1607 52.4106 27.2794 52.0985 26.288Z" fill="black"/>
<path fill-rule="evenodd" clip-rule="evenodd" d="M36.4902 56.1519C36.2821 56.9233 37.6348 58.4661 39.2997 58.4661C41.0686 58.4661 42.5254 56.7029 42.2132 56.0417C41.9011 54.8295 36.9064 54.9397 36.4902 56.1519Z" fill="white"/>
<path d="M36.4912 56.1522C36.4912 56.2623 36.4912 56.4826 36.4912 56.5928C36.4912 56.703 36.5952 56.9233 36.6993 57.0334C36.9074 57.2537 37.1155 57.474 37.3236 57.6943C37.8439 58.0248 38.3642 58.2451 38.9885 58.3553C39.6129 58.3553 40.1331 58.2451 40.6534 57.9146C40.8615 57.8045 41.1737 57.5842 41.3818 57.3639C41.5899 57.1436 41.798 56.9233 41.902 56.703C42.0061 56.5928 42.0061 56.4826 42.1102 56.3725C42.1102 56.2623 42.1102 56.1522 42.1102 56.042C42.1102 55.9319 42.0061 55.8217 41.902 55.8217C41.798 55.7116 41.694 55.7116 41.5899 55.6014C41.2777 55.4913 41.0696 55.3811 40.7574 55.3811C40.4453 55.271 40.1331 55.271 39.925 55.271C39.3007 55.271 38.7804 55.271 38.1561 55.3811C37.8439 55.3811 37.5317 55.4913 37.3236 55.6014C37.2196 55.7116 37.0115 55.7116 36.9074 55.8217C36.6993 55.9319 36.5953 56.042 36.4912 56.1522ZM36.4912 56.1522C36.4912 56.042 36.5953 55.9319 36.8034 55.8217C36.9074 55.7116 37.0115 55.6014 37.2196 55.6014C37.5317 55.4913 37.7399 55.3811 38.052 55.271C38.6764 55.1608 39.1966 55.0507 39.821 55.0507C40.4453 55.0507 41.0696 55.0507 41.694 55.271C41.798 55.271 42.0061 55.3811 42.1102 55.4913C42.1102 55.4913 42.2142 55.4913 42.2142 55.6014L42.3183 55.7116L42.4223 55.8217C42.4223 55.8217 42.4223 55.9319 42.5264 55.9319C42.6304 56.1522 42.5264 56.3725 42.5264 56.5928C42.5264 56.8131 42.4223 56.9233 42.3183 57.0334C42.0061 57.5842 41.4858 58.0248 40.8615 58.3553C40.5493 58.4654 40.2372 58.5756 39.925 58.5756C39.6128 58.5756 39.3007 58.5756 38.9885 58.5756C38.3642 58.4654 37.8439 58.135 37.3236 57.8045C37.1155 57.5842 36.9074 57.3639 36.6993 57.1436C36.5952 57.0334 36.4912 56.9233 36.4912 56.703C36.4912 56.4827 36.4912 56.3725 36.4912 56.1522Z" fill="black"/>
<path d="M35.8659 67.8332C36.8024 68.9352 38.2591 69.4862 39.6118 69.4862C40.9645 69.4862 42.3172 68.825 43.3578 67.723C43.5659 67.5026 43.6699 67.2822 43.878 67.0618H44.3983H44.7105C46.3754 67.172 47.3118 66.9516 49.2889 65.9598C49.601 65.8496 55.1159 63.2048 55.5321 56.3724C55.7402 53.7276 54.9078 51.4134 54.0754 49.9808C54.6997 51.4134 55.1159 53.2868 55.0118 55.4908C54.5956 62.213 48.9767 64.8578 48.7686 65.0782C46.7916 66.07 45.8551 66.2904 44.1902 66.1802H43.878H43.3578C43.2537 66.4006 43.0456 66.621 42.8375 66.8414C40.4443 70.8086 35.5537 67.6128 35.5537 67.6128L35.8659 67.8332Z" fill="black"/>
<path d="M35.1373 64.4163C35.3454 64.5264 35.5535 64.6366 35.8657 64.7468H35.9697C36.0738 64.7468 36.0738 64.7468 36.1778 64.8569H36.2819C36.3859 64.8569 36.49 64.8569 36.594 64.8569C37.1143 64.8569 37.7386 64.8569 38.2589 64.6366C38.6751 64.4163 39.0913 64.3061 39.4035 63.9756C39.7156 64.3061 40.1319 64.5264 40.5481 64.6366C41.0683 64.8569 41.6927 64.9671 42.2129 64.8569C42.317 64.8569 42.421 64.8569 42.6291 64.8569C42.7332 64.8569 42.7332 64.8569 42.8372 64.8569C42.9413 64.8569 42.9413 64.8569 43.0453 64.8569C43.1494 64.8569 43.2535 64.8569 43.2535 64.7468H43.3575C43.4615 64.7468 43.5656 64.6366 43.6697 64.6366C43.7737 64.6366 43.8778 64.5264 43.9818 64.5264C44.5021 64.196 44.8143 63.8655 45.2305 63.4248C44.8143 63.8655 44.294 64.196 43.7737 64.3061C43.6697 64.3061 43.5656 64.4163 43.4615 64.4163C43.3575 64.4163 43.2535 64.4163 43.1494 64.5264H43.0453C42.9413 64.5264 42.8372 64.5264 42.8372 64.5264C42.7332 64.5264 42.6291 64.5264 42.5251 64.5264C42.0048 64.5264 41.5886 64.3061 41.1724 64.0858C40.8602 63.8655 40.444 63.535 40.2359 63.3146L40.1319 62.7638L39.8197 61.0012L39.4035 63.2045C39.0913 63.535 38.7792 63.8655 38.3629 64.0858C37.9467 64.3061 37.4265 64.5264 37.0103 64.5264C36.9062 64.5264 36.8021 64.5264 36.6981 64.5264H36.594C36.49 64.5264 36.49 64.5264 36.3859 64.5264C36.2819 64.5264 36.2819 64.5264 36.1778 64.5264H36.0738C35.4494 64.4163 34.7211 63.9756 34.3049 63.535C34.2008 63.7553 34.617 64.0858 35.1373 64.4163Z" fill="black"/>
</svg>
