<svg width="275" height="59" viewBox="0 0 275 59" fill="none" xmlns="http://www.w3.org/2000/svg">
<path fill-rule="evenodd" clip-rule="evenodd" d="M25.7063 13.93C25.7063 13.93 27.7051 1.65387 37.0681 0.180741C46.431 -1.29239 50.2183 6.68707 50.3235 7.91468C42.1177 11.5975 29.4936 11.2292 25.7063 13.93Z" fill="black"/>
<path fill-rule="evenodd" clip-rule="evenodd" d="M51.0603 18.3488L51.7967 27.9245C52.6384 38.4824 48.0094 48.672 40.1193 53.7054C40.0141 53.7054 40.0141 53.8282 39.9089 53.8282C39.9089 53.8282 38.8569 30.3799 39.6985 25.1009C30.9668 30.1343 19.6049 39.5873 27.3899 53.3371C28.0211 54.1965 28.9679 55.5469 29.7043 56.5291C34.3332 56.1608 39.2777 55.1786 44.2222 53.5827C65.1574 46.585 79.57 30.2571 76.414 17.1211C74.7307 10.1234 68.3134 5.45831 59.5816 3.61682C59.3712 4.72172 58.9505 5.82661 58.4244 6.80874C57.8984 8.15917 54.9528 12.8243 52.1123 16.2617" fill="#FF0000"/>
<path fill-rule="evenodd" clip-rule="evenodd" d="M28.2319 56.5293C28.2319 56.5293 18.4482 52.3554 16.1338 42.78C13.9245 33.2046 16.7649 24.1202 22.7614 18.8415C30.7568 11.7213 48.6411 15.1587 55.6896 5.70601C58.4248 2.02316 52.7439 16.2635 39.8041 22.8926C30.9672 27.4348 16.4494 37.3785 25.0759 52.4782C26.1279 53.8286 28.2319 56.5293 28.2319 56.5293Z" fill="black"/>
<path fill-rule="evenodd" clip-rule="evenodd" d="M13.9241 42.4113C11.6097 32.2218 14.5553 22.5234 20.7622 16.999C21.3934 16.3851 22.235 15.8941 22.9714 15.403C23.287 13.6843 23.813 11.229 25.0755 8.89648C8.24317 16.8762 -2.38218 30.8714 0.458271 42.4113C2.66751 51.4959 12.8721 56.7748 25.8119 56.7748C23.6027 55.5472 15.9229 51.1276 13.9241 42.4113Z" fill="#FF0000"/>
<path d="M34.9646 46.2175C34.9646 46.2175 35.701 46.3402 37.3842 44.9896C37.3842 44.9896 38.0154 44.4985 38.9623 44.9896C38.9623 44.9896 39.3831 45.358 39.9091 44.9896C39.9091 44.9896 40.7507 44.4985 41.4871 44.9896C41.4871 44.9896 42.8547 46.2175 43.8015 46.2175L42.5391 47.8136C42.5391 47.8136 41.4871 49.4098 39.6987 49.4098C37.9103 49.4098 37.1739 49.0414 36.227 47.6908L34.9646 46.2175Z" fill="black"/>
<path d="M51.1654 28.7851C51.1654 28.7851 50.2187 30.1354 48.3251 30.0126C48.3251 30.0126 48.851 29.7671 49.0614 29.2761C49.1666 29.0306 49.2718 28.7851 49.2718 28.5396C49.2718 28.5396 49.1667 28.9078 48.8511 29.1534C48.8511 29.1534 48.851 29.1534 48.7458 29.1534C48.4302 29.3989 48.0094 29.6444 47.4834 29.5216C47.4834 29.5216 47.9042 29.2761 48.2198 28.9078L48.3251 28.7851C48.4303 28.6623 48.4302 28.5396 48.5354 28.2941C48.5354 28.2941 48.325 28.4168 48.1146 28.6623C48.0094 28.6623 48.0094 28.7851 47.9042 28.7851C47.5886 28.9078 47.273 29.0306 46.8522 29.0306C43.2754 28.6623 41.8027 32.4677 41.8027 32.4677L41.3818 33.5725C41.3818 33.5725 42.6443 32.0995 44.1171 31.1174C44.5379 30.3809 45.169 29.8899 45.9054 30.3809C46.6418 30.2582 47.4835 30.3809 48.1146 31.1174C48.1146 31.1174 47.273 33.327 43.8014 33.5725C43.8014 33.5725 47.1679 33.9408 48.6406 31.2402C48.6406 31.2402 50.2186 31.2402 50.7446 30.2582C50.7446 30.2582 49.3771 31.2402 48.8511 30.5037C48.8511 30.5037 50.6394 30.3809 51.1654 28.7851Z" fill="black"/>
<path d="M44.6452 29.7679C43.8036 30.0134 43.3828 30.9954 43.5932 31.9774C43.8036 32.9595 44.6452 33.4505 45.4868 33.205C46.3284 32.9595 46.7492 31.9774 46.5388 30.9954C46.3284 30.0134 45.4868 29.5224 44.6452 29.7679ZM45.2764 32.4685C44.7504 32.5912 44.2244 32.2229 44.1192 31.7319C44.014 31.1182 44.3296 30.5044 44.7504 30.3817C45.1712 30.2589 45.8023 30.6272 45.9075 31.1182C46.1179 31.7319 45.8024 32.3457 45.2764 32.4685Z" fill="black"/>
<path d="M40.6451 29.0301L46.1156 25.347C47.0624 24.7332 48.2196 24.3649 49.3768 24.4876C49.6924 24.4876 50.1132 24.6104 50.3236 24.7332C50.3236 24.7332 48.2196 22.7689 45.0636 24.4876L40.7504 26.6975C40.4348 26.943 40.1191 27.3114 40.1191 27.8024V28.7846C40.2243 29.0301 40.4347 29.1529 40.6451 29.0301Z" fill="black"/>
<path d="M37.0685 55.5476C35.5957 54.6882 31.072 51.8646 28.6523 46.5857C28.6523 46.5857 28.7575 50.637 30.546 56.5297C32.65 56.2842 34.9644 55.9159 37.0685 55.5476Z" fill="black"/>
<path d="M44.7491 32.3458C45.2144 32.3458 45.5916 31.9059 45.5916 31.3632C45.5916 30.8206 45.2144 30.3807 44.7491 30.3807C44.2839 30.3807 43.9067 30.8206 43.9067 31.3632C43.9067 31.9059 44.2839 32.3458 44.7491 32.3458Z" fill="black"/>
<path d="M57.3728 30.9942C57.6884 23.874 55.8999 17.1219 53.7959 14.0529C52.3231 15.8943 52.5335 15.6488 50.8503 17.3675C50.7451 17.4902 50.4295 17.7358 50.3243 17.9813C55.2687 39.8332 47.4839 49.1633 47.4839 49.1633C53.2699 44.8665 56.952 39.0966 57.3728 30.9942Z" fill="black"/>
<path d="M87.671 46.3441C86.3033 47.0807 85.0409 47.3262 83.9889 47.3262C82.8317 47.3262 81.9901 46.9579 81.2537 46.0986C80.5173 45.2392 80.2017 44.1343 80.2017 42.5384C80.2017 40.9425 80.8328 36.6458 82.2005 29.5255C83.5681 22.4052 83.9889 21.5458 83.9889 18.1085C83.9889 17.3719 84.0941 11.9703 83.9889 10.8654C86.4085 10.0061 88.8282 9.51501 91.1426 9.51501C91.353 10.0061 91.4583 10.9882 91.4583 12.2158C91.4583 14.5483 90.827 19.5816 89.4594 27.3157C88.0918 35.0498 87.4605 39.4693 87.4605 40.697C87.4605 41.9246 87.5658 42.4156 87.8814 42.4156C88.0918 42.4156 88.723 42.1701 89.5646 41.8018L89.9854 41.5563L90.9322 44.0116C90.1958 44.8709 89.0386 45.6075 87.671 46.3441Z" fill="black"/>
<path d="M89.8799 37.5011C89.8799 33.3271 90.8267 30.0125 92.8255 27.68C94.8244 25.3475 97.244 24.1199 100.19 24.1199C102.189 24.1199 103.872 24.7337 105.029 25.8386C106.291 26.9434 106.817 28.5393 106.817 30.3808C106.817 31.7312 106.502 32.9588 105.871 34.0637C105.239 35.1686 104.398 36.0279 103.451 36.5189C101.452 37.6238 99.7689 38.3604 98.296 38.6059L97.3492 38.7287C97.6648 40.9384 98.5064 42.0433 99.9793 42.0433C100.61 42.0433 101.347 41.9205 102.083 41.5522C102.82 41.1839 103.451 40.8157 103.872 40.4474L104.503 39.9563L105.765 42.166L105.345 42.7799C105.239 43.0254 104.819 43.3937 104.187 44.0075C103.556 44.6213 103.03 45.1124 102.294 45.6034C101.662 46.0945 100.821 46.4628 99.8741 46.8311C98.9273 47.1993 97.8752 47.3221 96.9284 47.3221C94.7191 47.3221 92.9307 46.4628 91.7735 44.8668C90.5111 43.1482 89.8799 40.6929 89.8799 37.5011ZM99.4532 33.0816C100.19 31.6084 100.61 30.3808 100.61 29.3987C100.61 28.4166 100.4 27.9255 99.9793 27.9255C99.348 27.9255 98.7168 28.5393 98.1908 29.8897C97.6648 31.2401 97.3492 33.0816 97.244 35.5368C97.8752 35.4141 98.7168 34.5547 99.4532 33.0816Z" fill="black"/>
<path d="M106.396 40.9389L106.922 30.3813C106.922 29.5219 106.817 28.7853 106.607 28.1715C106.396 27.6805 105.976 26.9439 105.45 25.9618L105.555 25.2252C107.554 24.6114 109.237 24.3658 110.605 24.3658C111.972 24.3658 112.919 24.7341 113.445 25.5935C113.971 26.3301 114.287 27.5577 114.287 29.0309C114.287 30.504 114.076 32.591 113.655 35.4146C113.235 38.2381 113.024 40.0796 113.024 40.9389C113.024 41.7983 113.235 42.2893 113.655 42.2893C114.287 42.2893 115.128 41.5528 116.075 39.9568C117.127 38.3609 117.758 36.8877 118.074 35.4146L115.128 31.8544C115.234 30.3813 115.444 29.1536 115.865 27.926C116.18 26.6984 116.601 25.839 116.812 25.348L117.232 24.4886C120.388 24.4886 121.966 26.2073 121.966 29.5219C121.966 31.7317 121.44 34.1869 120.388 37.0105C119.336 39.7113 117.864 42.1666 116.075 44.3763C114.181 46.4633 112.288 47.5682 110.289 47.5682C107.659 47.3227 106.396 45.2357 106.396 40.9389Z" fill="black"/>
<path d="M120.178 37.5011C120.178 33.3271 121.125 30.0125 123.123 27.68C125.122 25.3475 127.542 24.1199 130.487 24.1199C132.486 24.1199 134.169 24.7337 135.327 25.8386C136.589 26.9434 137.115 28.5393 137.115 30.3808C137.115 31.7312 136.8 32.9588 136.168 34.0637C135.537 35.1686 134.695 36.0279 133.749 36.5189C131.75 37.6238 130.067 38.3604 128.594 38.6059L127.647 38.7287C127.963 40.9384 128.804 42.0433 130.277 42.0433C130.908 42.0433 131.645 41.9205 132.381 41.5522C133.117 41.1839 133.749 40.8157 134.169 40.4474L134.801 39.9563L136.063 42.166L135.642 42.7799C135.537 43.0254 135.116 43.3937 134.485 44.0075C133.854 44.6213 133.328 45.1124 132.591 45.6034C131.96 46.0945 131.119 46.4628 130.172 46.8311C129.225 47.1993 128.173 47.3221 127.226 47.3221C125.017 47.3221 123.229 46.4628 122.071 44.8668C120.809 43.1482 120.178 40.6929 120.178 37.5011ZM129.751 33.0816C130.487 31.6084 130.908 30.3808 130.908 29.3987C130.908 28.4166 130.698 27.9255 130.277 27.9255C129.646 27.9255 129.015 28.5393 128.489 29.8897C127.963 31.2401 127.647 33.0816 127.542 35.5368C128.278 35.4141 129.015 34.5547 129.751 33.0816Z" fill="black"/>
<path d="M143.218 46.3423C141.85 47.0789 140.588 47.3244 139.536 47.3244C138.378 47.3244 137.537 46.9561 136.8 46.0968C136.064 45.2374 135.748 44.1325 135.748 42.5366C135.748 40.9406 136.38 36.6438 137.747 29.5234C139.115 22.4031 139.746 17.1241 139.746 13.6867C139.746 12.9501 139.641 11.968 139.536 10.8631C141.955 10.0038 144.375 9.5127 146.689 9.5127C146.9 10.0038 147.005 10.9859 147.005 12.2135C147.005 14.5461 146.374 19.5795 145.006 27.3137C143.638 35.0479 143.007 39.4674 143.007 40.6951C143.007 41.9227 143.112 42.4138 143.428 42.4138C143.638 42.4138 144.27 42.1683 145.111 41.8L145.532 41.5544L146.479 44.0098C145.742 44.8691 144.585 45.6057 143.218 46.3423Z" fill="black"/>
<path d="M144.585 58.1254C144.375 57.6344 144.27 56.775 144.27 55.3018C144.27 53.8287 144.796 50.023 145.742 43.762C146.794 37.501 147.215 33.5725 147.215 31.9766C147.215 30.3807 147.11 29.153 146.9 28.2937C146.689 27.4343 146.479 26.9433 146.163 26.6977L145.848 26.3294L145.953 25.5928C147.531 24.979 150.161 24.6107 153.948 24.6107C154.159 25.1018 154.369 25.8384 154.474 26.575C156.157 24.979 157.735 24.2424 159.208 24.2424C160.681 24.2424 161.943 24.979 162.89 26.4522C163.837 27.9254 164.363 30.3807 164.363 33.9408C164.363 37.501 163.627 40.5701 162.259 43.2709C160.786 45.9717 158.787 47.3222 155.947 47.3222C154.79 47.3222 153.527 47.0766 152.37 46.4628C151.739 50.2685 151.423 53.7059 151.423 56.5295C149.53 57.3888 147.215 57.8799 144.585 58.1254ZM154.053 43.0254C154.79 43.0254 155.316 42.2888 155.842 40.9384C156.683 38.6059 157.209 35.6595 157.209 32.3449C157.209 30.3807 156.789 29.3985 156.052 29.3985C155.631 29.3985 155.105 29.6441 154.474 30.0124C154.369 32.8359 153.843 37.1327 152.896 42.9026C153.422 43.0254 153.738 43.0254 154.053 43.0254Z" fill="black"/>
<path d="M164.536 47.3872H164.22C164.115 46.8961 164.115 46.1595 164.115 45.1773C164.115 44.1952 164.431 41.617 165.062 37.4428C165.693 33.2687 166.009 30.936 166.009 30.3222C166.009 29.7083 165.904 29.2173 165.693 28.6034C165.483 27.9896 165.272 27.6212 164.957 27.2529L164.641 26.7619L164.746 26.0252C166.324 25.4114 168.955 25.0431 172.531 25.0431C172.847 25.9025 173.057 26.8846 173.163 27.9896C174.741 25.6569 176.213 24.552 177.371 24.552C178.949 24.552 179.896 26.2708 180.001 29.8311C179.896 29.9539 179.895 29.9539 179.79 30.1994C179.685 30.3222 179.58 30.5677 179.264 30.936C178.949 31.3043 178.633 31.6726 178.318 31.9182C177.476 32.6548 176.529 33.1459 175.477 33.2687C175.477 33.2687 175.267 32.9003 174.951 32.1637C174.635 31.4271 174.32 31.0588 174.109 31.0588C173.899 31.0588 173.478 31.3043 172.847 31.9182C172.742 32.532 172.637 33.5142 172.426 34.9874C172.216 36.4607 172.005 37.6884 171.9 38.5478C171.479 41.0032 171.269 43.213 171.269 44.809V46.2822C170.217 47.1416 168.008 47.3872 164.536 47.3872Z" fill="black"/>
<path d="M183.931 47.3222C181.932 47.3222 180.249 46.4628 179.092 44.8669C177.934 43.1482 177.303 40.8157 177.303 37.7466C177.303 34.0636 178.145 30.8717 179.828 28.2937C181.511 25.7156 183.826 24.3652 186.561 24.3652L188.349 24.6107C188.981 24.3652 189.612 24.2424 190.138 24.2424C191.4 24.2424 192.347 24.8563 192.978 25.9611C193.504 27.066 193.82 28.7847 193.925 30.8717C194.977 30.749 196.029 30.6262 197.081 30.2579L197.607 30.0124C197.817 30.2579 197.923 30.9945 198.028 32.0994V32.7132C196.871 33.4498 195.398 34.0636 193.715 34.5547C193.189 38.1148 192.031 41.184 190.243 43.6393C188.665 46.0946 186.561 47.3222 183.931 47.3222ZM184.772 37.501C184.772 40.6929 185.404 42.1661 186.666 42.1661C187.508 42.1661 188.455 41.4295 189.296 40.0791C190.138 38.7287 190.874 36.8872 191.19 34.923C188.56 34.923 187.192 33.2043 187.192 29.8896C187.192 29.2758 187.192 28.662 187.297 28.1709C187.087 28.1709 186.877 28.1709 186.666 28.2937C186.245 28.9075 185.824 30.1351 185.404 31.9766C184.983 33.8181 184.772 35.6596 184.772 37.501Z" fill="black"/>
<path d="M205.287 12.0877C205.287 14.4203 204.656 19.331 203.288 26.6971C205.498 24.9783 207.286 24.2417 208.654 24.2417C209.916 24.2417 210.968 24.7328 211.494 25.5921C212.125 26.4515 212.441 27.5564 212.441 28.9069C212.441 30.2573 212.125 32.3444 211.599 35.168C211.073 37.9917 210.758 39.9559 210.758 40.8153C210.758 41.6747 210.863 42.1658 211.073 42.1658L213.072 41.4292L213.808 44.0073C212.967 44.7439 211.915 45.4805 210.442 46.2171C208.969 46.9537 207.707 47.322 206.655 47.322C204.551 47.322 203.499 45.726 203.499 42.6568C203.499 41.1836 203.814 39.0966 204.34 36.3957C204.866 33.572 205.182 31.8533 205.182 31.1167C205.182 30.3801 204.972 30.0118 204.551 30.0118C204.025 30.0118 203.288 30.3801 202.552 30.9939C201.395 37.5006 200.764 41.9202 200.764 44.4983V45.726C198.133 46.5854 195.714 47.0765 193.61 47.0765C193.505 46.9537 193.399 46.4626 193.399 45.4805C193.399 43.3934 194.136 38.2372 195.714 29.889C197.292 21.5408 198.028 16.0163 198.028 13.0699C198.028 12.2105 197.923 11.3511 197.923 10.7373C200.448 9.87791 202.868 9.38684 205.077 9.38684C205.182 10.0007 205.287 10.86 205.287 12.0877Z" fill="#FA0F0C"/>
<path d="M219.278 47.3222C217.279 47.3222 215.596 46.4628 214.439 44.8669C213.281 43.1482 212.65 40.8157 212.65 37.7466C212.65 34.0636 213.492 30.8717 215.175 28.2937C216.858 25.7156 219.173 24.3652 221.908 24.3652L223.696 24.6107C224.328 24.3652 224.959 24.2424 225.485 24.2424C226.747 24.2424 227.694 24.8563 228.325 25.9611C228.851 27.066 229.167 28.7847 229.272 30.8717C230.324 30.749 231.376 30.6262 232.428 30.2579L232.954 30.0124C233.165 30.2579 233.27 30.9945 233.375 32.0994V32.7132C232.218 33.4498 230.745 34.0636 229.062 34.5547C228.536 38.1148 227.378 41.184 225.59 43.6393C223.907 46.0946 221.803 47.3222 219.278 47.3222ZM220.119 37.501C220.119 40.6929 220.751 42.1661 222.013 42.1661C222.855 42.1661 223.802 41.4295 224.643 40.0791C225.485 38.7287 226.221 36.8872 226.537 34.923C223.907 34.923 222.539 33.2043 222.539 29.8896C222.539 29.2758 222.539 28.662 222.644 28.1709C222.434 28.1709 222.224 28.1709 222.013 28.2937C221.592 28.9075 221.172 30.1351 220.751 31.9766C220.33 33.8181 220.119 35.6596 220.119 37.501Z" fill="#FA0F0C"/>
<path d="M230.009 46.9535H229.062C229.062 44.4983 229.378 41.1837 230.114 36.8871C230.851 32.5905 231.166 30.1353 231.166 29.6443C231.166 29.1532 231.061 28.6622 230.851 28.0484C230.64 27.4346 230.43 27.0663 230.114 26.698L229.799 26.207L229.904 25.4704C231.377 24.8566 234.112 24.4884 238.004 24.4884C238.32 25.2249 238.53 26.0842 238.636 26.9436C240.95 24.9794 242.844 23.9973 244.422 23.9973C245.263 23.9973 246 24.2428 246.526 24.8566C247.157 25.4704 247.578 26.207 247.788 27.1891C249.997 25.1022 251.996 23.9973 253.785 23.9973C254.942 23.9973 255.889 24.4884 256.52 25.3477C257.151 26.3298 257.572 27.4346 257.572 28.6622C257.572 30.0126 257.256 32.0995 256.73 35.0457C256.204 37.992 255.889 39.8334 255.889 40.6927C255.889 41.552 255.994 41.9203 256.204 41.9203L258.203 41.3065L258.939 43.8845C258.203 44.7438 257.046 45.4803 255.678 46.0941C254.311 46.8307 253.048 47.0762 251.996 47.0762C249.787 47.0762 248.63 45.6031 248.63 42.6569C248.63 41.4293 248.945 39.2196 249.471 36.2733C249.997 33.2043 250.313 31.3629 250.313 30.7491C250.313 30.1353 250.103 29.767 249.682 29.767C249.156 29.767 248.525 30.0126 247.893 30.6264C247.788 31.1174 247.578 32.345 247.262 34.3092C246.526 38.6058 246.21 42.5341 246.21 45.8486C245.053 46.4624 242.633 46.7079 239.162 46.7079C239.056 46.3397 239.056 45.4803 239.056 44.0072C239.056 42.6568 239.372 40.2016 239.898 36.6416C240.424 33.0816 240.74 31.1174 240.74 30.5036C240.74 30.0126 240.529 29.6443 240.214 29.6443C239.793 29.6443 239.162 29.8898 238.53 30.5036C238.425 31.1174 238.215 32.5905 237.794 34.923C236.952 39.9561 236.426 43.5162 236.426 45.8486C234.954 46.7079 232.85 46.9535 230.009 46.9535Z" fill="#FA0F0C"/>
<path d="M257.677 37.5011C257.677 33.3271 258.623 30.0125 260.622 27.68C262.621 25.3475 265.041 24.1199 267.986 24.1199C269.985 24.1199 271.669 24.7337 272.826 25.8386C274.088 26.9434 274.614 28.5393 274.614 30.3808C274.614 31.7312 274.299 32.9588 273.667 34.0637C273.036 35.1686 272.195 36.0279 271.248 36.5189C269.249 37.6238 267.566 38.3604 266.093 38.6059L265.146 38.7287C265.462 40.9384 266.303 42.0433 267.776 42.0433C268.407 42.0433 269.144 41.9205 269.88 41.5522C270.617 41.1839 271.248 40.8157 271.669 40.4474L272.3 39.9563L273.562 42.166L273.141 42.7799C273.036 43.0254 272.615 43.3937 271.984 44.0075C271.353 44.6213 270.827 45.1124 270.091 45.6034C269.459 46.0945 268.618 46.4628 267.671 46.8311C266.724 47.1993 265.672 47.3221 264.725 47.3221C262.516 47.3221 260.728 46.4628 259.57 44.8668C258.308 43.1482 257.677 40.6929 257.677 37.5011ZM267.25 33.0816C267.987 31.6084 268.407 30.3808 268.407 29.3987C268.407 28.4166 268.197 27.9255 267.776 27.9255C267.145 27.9255 266.514 28.5393 265.988 29.8897C265.462 31.2401 265.146 33.0816 265.041 35.5368C265.672 35.4141 266.514 34.5547 267.25 33.0816Z" fill="#FA0F0C"/>
</svg>
