<svg width="18" height="18" viewBox="0 0 18 18" fill="none" xmlns="http://www.w3.org/2000/svg">
<path d="M7.30083 14.625C5.54356 14.625 4.11328 13.1947 4.11328 11.4375V3.75005H2.80083C1.66306 3.75005 0.738281 4.67468 0.738281 5.81245V15.9375C0.738281 17.0752 1.66306 18 2.80083 18H12.1757C13.3135 18 14.2383 17.0752 14.2383 15.9375V14.625H7.30083Z" fill="#AFAFAF"/>
<path d="M17.2382 2.06255C17.2382 0.923264 16.315 0 15.1758 0H7.30083C6.16154 0 5.23828 0.923264 5.23828 2.06255V11.4375C5.23828 12.5767 6.16154 13.5 7.30083 13.5H15.1758C16.315 13.5 17.2382 12.5767 17.2382 11.4375V2.06255Z" fill="#AFAFAF"/>
</svg>
