<svg width="14" height="17" viewBox="0 0 14 17" fill="none" xmlns="http://www.w3.org/2000/svg">
<path d="M12.9781 4.5657C12.9733 4.50057 12.9188 4.4502 12.8535 4.4502H10.6035V3.8252C10.6035 1.82632 8.97725 0.200195 6.9785 0.200195C4.97975 0.200195 3.3535 1.82632 3.3535 3.8252V4.4502H1.1035C1.03825 4.4502 0.983749 4.50057 0.978874 4.5657L0.103874 16.0657C0.101249 16.1003 0.113124 16.1346 0.136874 16.1601C0.160499 16.1857 0.193749 16.2002 0.228499 16.2002H13.7285C13.7633 16.2002 13.7965 16.1857 13.8201 16.1602C13.8438 16.1347 13.8558 16.1004 13.8531 16.0658L12.9781 4.5657ZM4.3535 3.8252C4.3535 2.37782 5.531 1.2002 6.9785 1.2002C8.426 1.2002 9.6035 2.37782 9.6035 3.8252V4.4502H4.3535V3.8252ZM3.8535 7.9502C3.16412 7.9502 2.6035 7.38945 2.6035 6.7002C2.6035 6.20132 2.8535 5.75182 3.3535 5.55457V6.7002C3.3535 6.97595 3.57787 7.2002 3.8535 7.2002C4.12912 7.2002 4.3535 6.97595 4.3535 6.7002V5.55532C4.8535 5.75257 5.1035 6.20545 5.1035 6.7002C5.1035 7.38945 4.54287 7.9502 3.8535 7.9502ZM10.1035 7.9502C9.41413 7.9502 8.8535 7.38945 8.8535 6.7002C8.8535 6.20132 9.1035 5.75182 9.6035 5.55457V6.7002C9.6035 6.97595 9.82788 7.2002 10.1035 7.2002C10.3791 7.2002 10.6035 6.97595 10.6035 6.7002V5.55532C11.1035 5.75257 11.3535 6.20545 11.3535 6.7002C11.3535 7.38945 10.7929 7.9502 10.1035 7.9502Z" fill="white"/>
</svg>
