<svg width="16" height="16" viewBox="0 0 16 16" fill="none" xmlns="http://www.w3.org/2000/svg">
<path d="M11.4113 9.45262C11.9623 8.54777 12.2536 7.50879 12.2536 6.44942C12.2536 3.24014 9.65678 0.641417 6.44686 0.640137C3.23982 0.641097 0.640137 3.24014 0.640137 6.44878C0.640137 9.65454 3.24014 12.2533 6.44878 12.2533C7.54958 12.2533 8.57518 11.9422 9.45166 11.4107L13.4014 15.3601L15.3601 13.4005L11.4113 9.45262ZM6.44814 10.0417C4.4635 10.0369 2.85902 8.4331 2.8555 6.45262C2.85685 5.50015 3.23577 4.58706 3.90921 3.91351C4.58265 3.23995 5.49567 2.86086 6.44814 2.85934C8.43182 2.86446 10.0369 4.4683 10.0411 6.45262C10.0369 8.43086 8.43118 10.0369 6.44814 10.0417Z" fill="white"/>
</svg>
